<svg width="35" height="35" viewBox="0 0 35 35" fill="none" xmlns="http://www.w3.org/2000/svg">
<path d="M27.0524 22.3764C27.7204 21.0405 28.2214 19.5376 28.2214 18.0347H34.7339C34.5669 20.8735 33.899 23.3784 32.7301 25.7162L27.0524 22.3764Z" fill="#6146EE"/>
<path d="M2.00388 9.18439L7.68152 12.5242C7.01357 13.8601 6.51259 15.363 6.51259 16.8659H0C0.166988 14.194 0.834962 11.5222 2.00388 9.18439Z" fill="black"/>
<path d="M16.8657 0V6.67953C15.3628 6.67953 13.8599 7.18052 12.524 7.84847L9.1842 2.00388C11.522 0.834962 14.0269 0.166988 16.8657 0Z" fill="black"/>
<path d="M18.0342 34.9006V28.2211C19.5371 28.2211 21.04 27.7201 22.3759 27.0522L25.7157 32.8968C23.3779 34.0657 20.706 34.7336 18.0342 34.9006Z" fill="black"/>
<path d="M12.524 27.0522C13.8599 27.7201 15.3628 28.0541 16.8657 28.2211V34.9006C14.0269 34.7336 11.522 34.0657 9.1842 32.8968L12.524 27.0522Z" fill="black"/>
<path d="M23.2113 26.5512C24.5472 25.7162 25.5491 24.7143 26.384 23.3784L32.0617 26.7182C30.7258 29.056 28.7219 30.8929 26.384 32.3958L23.2113 26.5512Z" fill="black"/>
<path d="M8.34929 23.3784C9.18423 24.7143 10.3532 25.7162 11.5221 26.5512L8.18234 32.2288C5.84451 30.8929 4.00759 28.889 2.5047 26.5512L8.34929 23.3784Z" fill="black"/>
<path d="M11.5222 8.34941C10.1863 9.18436 9.1843 10.1863 8.34936 11.5222L2.67181 8.18242C4.00772 5.84458 6.01152 4.00772 8.34936 2.50482L11.5222 8.34941Z" fill="black"/>
<path d="M0 18.0347H6.51259C6.51259 19.5376 7.01357 21.0405 7.68152 22.3764L2.00388 25.7162C0.834962 23.3784 0.166988 20.7065 0 18.0347Z" fill="black"/>
<path d="M34.9005 16.8659H28.3879C28.3879 15.363 27.8869 13.8601 27.219 12.5242L32.8966 9.18439C34.0656 11.5222 34.7335 14.194 34.9005 16.8659Z" fill="#6146EE"/>
<path d="M26.5512 11.5222C25.7163 10.1863 24.5473 9.18435 23.3784 8.34941L26.7182 2.67181C29.056 4.00772 30.8929 6.01157 32.3958 8.34941L26.5512 11.5222Z" fill="#6146EE"/>
<path d="M22.3759 7.84847C21.04 7.18052 19.537 6.84652 18.0341 6.67953V0C20.8729 0.166988 23.3778 0.834962 25.7156 2.00388L22.3759 7.84847Z" fill="#6146EE"/>
</svg>
