<svg width="33" height="23" viewBox="0 0 33 23" fill="none" xmlns="http://www.w3.org/2000/svg">
<path d="M32.0502 19.0326H28.0476V17.0276H30.0453V11.1811L28.3257 6.01497H21.0302V17.0276H22.0327V19.0326H19.0326V4.01001H29.7672L32.0502 10.8591V19.0326Z" fill="#6146EE"/>
<path d="M24.5496 22.0399C22.6098 22.0399 21.0297 20.4598 21.0297 18.5199C21.0297 16.5801 22.6098 15 24.5496 15C26.4894 15 28.0695 16.5801 28.0695 18.5199C28.0631 20.4598 26.4894 22.0399 24.5496 22.0399ZM24.5496 16.76C23.5797 16.76 22.7896 17.55 22.7896 18.5199C22.7896 19.4898 23.5797 20.2799 24.5496 20.2799C25.5195 20.2799 26.3096 19.4898 26.3096 18.5199C26.3096 17.55 25.5195 16.76 24.5496 16.76Z" fill="black"/>
<path d="M6.00737 19.0325H2.00476V12.0225H4.00241V17.0276H6.00737V19.0325Z" fill="#6146EE"/>
<path d="M21.03 19.0325H12.015V17.0276H19.0324V2.00496H-0.00012207V0H21.03V19.0325Z" fill="#6146EE"/>
<path d="M9.48986 21.98C7.56655 21.98 5.99988 20.4133 5.99988 18.49C5.99988 16.5667 7.56655 15 9.48986 15C11.4132 15 12.9799 16.5667 12.9799 18.49C12.9735 20.4133 11.4132 21.98 9.48986 21.98ZM9.48986 16.745C8.52821 16.745 7.74487 17.5283 7.74487 18.49C7.74487 19.4516 8.52821 20.235 9.48986 20.235C10.4515 20.235 11.2349 19.4516 11.2349 18.49C11.2349 17.5283 10.4515 16.745 9.48986 16.745Z" fill="black"/>
<path d="M10.0168 4.01001H1.00183V6.01497H10.0168V4.01001Z" fill="#6146EE"/>
<path d="M8.01233 8.01257H2.00476V10.0175H8.01233V8.01257Z" fill="#6146EE"/>
</svg>
