<svg width="30" height="33" viewBox="0 0 30 33" fill="none" xmlns="http://www.w3.org/2000/svg">
<path fill-rule="evenodd" clip-rule="evenodd" d="M17.4913 26.7043C20.5106 25.0918 23.4638 23.3121 26.553 21.4003C23.7979 22.6748 21.0779 23.8794 18.3229 24.9985L17.4913 26.7043Z" fill="black"/>
<path fill-rule="evenodd" clip-rule="evenodd" d="M27.1597 9.86731C27.3657 10.2131 27.661 10.5007 27.7815 10.9048C28.8112 14.3787 24.5524 16.3799 22.8504 17.6777C21.8246 18.4626 21.1174 19.539 20.6277 20.899C19.4776 24.1048 19.3921 26.4246 16.8935 28.7094C13.7732 31.5655 9.39398 32.84 5.51987 32.6418C4.55231 32.5913 -0.137818 32.3271 0.141957 30.1821C1.33489 30.9554 2.94748 31.3712 4.49791 31.3828C6.08719 31.3945 7.6959 31.3012 9.25409 30.8893C11.7449 30.2326 14.3328 28.7638 16.3184 26.7937C17.694 25.4259 18.4673 23.6346 19.2949 21.7694C20.3441 19.403 21.0474 17.565 22.7144 15.7076C24.226 14.029 26.9344 12.634 27.1597 9.86731Z" fill="#6146EE"/>
<path fill-rule="evenodd" clip-rule="evenodd" d="M11.3331 19.3408C9.32801 18.245 7.2025 18.3188 6.13779 18.96C5.96294 17.6155 6.81781 17.1842 7.52502 17.157C9.12984 17.1026 11.0144 17.3785 12.5882 18.2178C12.3473 18.688 11.8887 19.2009 11.3331 19.3408Z" fill="#6146EE"/>
<path fill-rule="evenodd" clip-rule="evenodd" d="M13.0342 17.1493C10.8776 16.1584 8.06821 15.9408 7.05014 16.5547C6.68876 15.2103 7.73015 14.779 8.43736 14.7518C10.0189 14.6974 11.8685 14.9655 13.4306 15.7737C13.3062 16.2672 13.178 16.7257 13.0342 17.1493Z" fill="#6146EE"/>
<path fill-rule="evenodd" clip-rule="evenodd" d="M13.6528 14.7983C11.5039 13.8346 8.74503 13.6287 7.73862 14.2349C7.37724 12.8904 8.41863 12.4591 9.12584 12.4319C10.6491 12.3775 12.4249 12.6262 13.952 13.3722C13.8471 13.8696 13.7499 14.3437 13.6528 14.7983Z" fill="#6146EE"/>
<path fill-rule="evenodd" clip-rule="evenodd" d="M14.1421 12.4357C12.0166 11.5226 9.34316 11.3361 8.35617 11.9306C7.99479 10.5861 9.03618 10.1548 9.74339 10.1276C11.2316 10.0771 12.9569 10.3102 14.4568 11.0135C14.3441 11.5032 14.2392 11.9772 14.1421 12.4357Z" fill="#6146EE"/>
<path fill-rule="evenodd" clip-rule="evenodd" d="M14.7214 9.92949C12.6114 9.05908 10.0157 8.8881 9.04819 9.47097C8.68681 8.12649 9.7282 7.69517 10.4354 7.66797C11.9081 7.61746 13.614 7.84672 15.1022 8.53061C14.9623 9.00856 14.838 9.47486 14.7214 9.92949Z" fill="#6146EE"/>
<path fill-rule="evenodd" clip-rule="evenodd" d="M18.6382 5.86103C19.9283 5.93874 21.5292 6.20298 22.6289 5.24708C23.7402 4.2834 23.2584 2.67858 22.6289 1.50508C21.5137 -0.577696 19.2289 -0.484438 18.1175 1.69548C17.5619 2.79127 17.4181 3.12933 16.6953 4.12797C17.1267 4.37278 17.5696 4.51266 18.0398 4.58649C18.747 3.00887 19.971 0.374318 21.3039 3.35471C22.2015 5.35588 19.6718 5.35976 18.5411 5.19656C16.672 4.92456 15.7356 4.57872 14.6864 2.74852C13.9403 1.44291 12.0829 1.61776 11.3135 2.06463C9.99627 2.83013 10.5092 4.36112 9.71649 7.1783C10.6879 6.59544 13.2836 6.76641 15.3897 7.63683C15.9454 5.95429 17.3287 5.78331 18.6382 5.86103Z" fill="#6146EE"/>
<path fill-rule="evenodd" clip-rule="evenodd" d="M23.7826 4.56702C24.4626 5.82212 25.0533 6.64591 25.7993 7.74169C27.6956 10.5122 22.3838 13.2595 20.9732 15.2451C18.3698 18.9016 18.2182 23.2032 15.164 26.0359C12.1836 28.7948 9.02836 29.9372 5.83425 30.0072C5.78762 26.6188 10.3884 24.1669 11.4259 20.0596C14.2081 19.0299 13.9011 14.705 15.9062 8.19633C16.5007 6.26899 18.1832 6.57208 19.5199 6.63813C21.2064 6.71974 22.9744 6.80522 23.7826 4.56702ZM21.9563 12.2686C18.5718 14.4252 18.0084 18.8511 15.9761 22.3405L14.5967 20.6114C16.8815 16.6906 17.1496 12.8204 20.7984 10.3374L21.9563 12.2686ZM5.10373 30.0033C3.37456 29.9761 1.82025 29.6458 0.0988517 29.094C-0.806533 24.8663 4.76178 24.1202 6.13345 19.8731C7.61782 19.1853 9.18767 19.4456 10.5594 20.1023C9.37419 24.163 5.07652 25.6162 5.10373 30.0033Z" fill="#6146EE"/>
<path fill-rule="evenodd" clip-rule="evenodd" d="M13.6018 30.9593C19.481 28.0955 24.5208 24.6449 29.9998 20.7086C25.7526 23.0556 21.5793 25.2239 17.2 27.1551L14.888 29.4516L13.6018 30.9593Z" fill="black"/>
</svg>
