<svg width="24" height="24" viewBox="0 0 24 24" fill="none" xmlns="http://www.w3.org/2000/svg">
<path d="M11.8453 5.6084C8.53177 5.6084 5.78625 8.29469 5.78625 11.6408C5.78625 14.9869 8.48444 17.6732 11.8453 17.6732C15.2062 17.6732 17.9044 14.9397 17.9044 11.6408C17.9044 8.34182 15.1589 5.6084 11.8453 5.6084ZM11.8453 15.5053C9.71519 15.5053 7.96374 13.7615 7.96374 11.6408C7.96374 9.52002 9.71519 7.77629 11.8453 7.77629C13.9755 7.77629 15.7269 9.52002 15.7269 11.6408C15.7269 13.7615 13.9755 15.5053 11.8453 15.5053Z" fill="white"/>
<path d="M18.1405 6.83303C18.8986 6.83303 19.5132 6.22114 19.5132 5.46632C19.5132 4.71151 18.8986 4.09961 18.1405 4.09961C17.3823 4.09961 16.7677 4.71151 16.7677 5.46632C16.7677 6.22114 17.3823 6.83303 18.1405 6.83303Z" fill="white"/>
<path d="M21.6917 1.93225C20.4609 0.659792 18.7095 0 16.7213 0H6.97C2.85172 0 0.106201 2.73342 0.106201 6.83356V16.4948C0.106201 18.5213 0.768913 20.265 2.09434 21.5375C3.37242 22.7628 5.07654 23.3755 7.01734 23.3755H16.674C18.7095 23.3755 20.4136 22.7157 21.6443 21.5375C22.9224 20.3122 23.5851 18.5684 23.5851 16.5419V6.83356C23.5851 4.85418 22.9224 3.15758 21.6917 1.93225ZM21.5023 16.5419C21.5023 18.0029 20.9816 19.1811 20.1296 19.9823C19.2775 20.7834 18.0941 21.2076 16.674 21.2076H7.01734C5.59724 21.2076 4.41383 20.7834 3.56177 19.9823C2.70971 19.134 2.28368 17.9558 2.28368 16.4948V6.83356C2.28368 5.41972 2.70971 4.24152 3.56177 3.39322C4.36649 2.59204 5.59724 2.16789 7.01734 2.16789H16.7687C18.1888 2.16789 19.3722 2.59204 20.2242 3.44034C21.0289 4.28865 21.5023 5.46685 21.5023 6.83356V16.5419Z" fill="white"/>
</svg>
