<svg width="14" height="14" viewBox="0 0 14 14" fill="none" xmlns="http://www.w3.org/2000/svg">
<path d="M2.83704 9.30626C4.22312 10.9569 5.89167 12.2565 7.79609 13.1761C8.52116 13.5184 9.49084 13.9246 10.5712 13.9942C10.6382 13.9971 10.7022 14 10.7692 14C11.4943 14 12.0767 13.7505 12.5513 13.237C12.5542 13.2341 12.56 13.2283 12.5629 13.2225C12.7318 13.0195 12.924 12.8367 13.125 12.6424C13.2618 12.5118 13.4016 12.3755 13.5355 12.2362C14.1558 11.5922 14.1558 10.7741 13.5297 10.1504L11.7796 8.40696C11.4826 8.09946 11.1274 7.93701 10.7546 7.93701C10.3819 7.93701 10.0237 8.09946 9.71797 8.40406L8.6755 9.4426C8.5794 9.38748 8.4804 9.33817 8.38721 9.29175C8.27073 9.23373 8.16299 9.17862 8.0669 9.1177C7.1176 8.5172 6.25567 7.73394 5.43158 6.72731C5.01518 6.20224 4.73563 5.76129 4.54053 5.31165C4.81425 5.06506 5.0705 4.80688 5.31802 4.5545C5.40538 4.46457 5.49565 4.37464 5.58592 4.28471C5.90041 3.9714 6.0693 3.60879 6.0693 3.24036C6.0693 2.87194 5.90332 2.50932 5.58592 2.19602L4.71816 1.33154C4.61624 1.23 4.52014 1.13137 4.42114 1.02984C4.22895 0.832574 4.02802 0.629507 3.83001 0.446747C3.53008 0.15375 3.17774 0 2.80501 0C2.43519 0 2.07993 0.153751 1.76835 0.449648L0.679282 1.5346C0.283257 1.92913 0.0590366 2.40779 0.0124454 2.96187C-0.0428816 3.6552 0.0852442 4.39204 0.417206 5.28264C0.926798 6.66059 1.69555 7.93991 2.83704 9.30626ZM0.722961 3.02279C0.757905 2.63697 0.906414 2.31496 1.18596 2.03647L2.26921 0.957315C2.4381 0.794861 2.62446 0.710734 2.80501 0.710734C2.98263 0.710734 3.16318 0.794861 3.32916 0.963116C3.52426 1.14298 3.70771 1.33154 3.90572 1.5317C4.00473 1.63324 4.10665 1.73477 4.20857 1.8392L5.07633 2.70369C5.25687 2.88355 5.35005 3.06631 5.35005 3.24617C5.35005 3.42603 5.25687 3.60879 5.07633 3.78865C4.98606 3.87857 4.89579 3.97141 4.80551 4.06133C4.5347 4.33402 4.28136 4.59221 4.00182 4.83879C3.99599 4.84459 3.99308 4.84749 3.98726 4.85329C3.74557 5.09407 3.78342 5.32325 3.84166 5.49731C3.84457 5.50601 3.84748 5.51181 3.8504 5.52051C4.07462 6.05719 4.38619 6.56776 4.87249 7.17696C5.74607 8.25031 6.66625 9.08288 7.67961 9.724C7.80482 9.80522 7.93877 9.86904 8.06399 9.93286C8.18046 9.99088 8.28821 10.046 8.3843 10.1069C8.39595 10.1127 8.40469 10.1185 8.41633 10.1243C8.51243 10.1736 8.60561 10.1969 8.69879 10.1969C8.93175 10.1969 9.08317 10.0489 9.13267 9.99959L10.2217 8.91463C10.3906 8.74637 10.5741 8.65644 10.7546 8.65644C10.9759 8.65644 11.1565 8.79279 11.27 8.91463L13.0259 10.661C13.3754 11.0091 13.3725 11.3862 13.0172 11.7547C12.8949 11.8852 12.7668 12.0099 12.6299 12.1405C12.4261 12.3378 12.2135 12.5408 12.0213 12.77C11.6865 13.1297 11.2875 13.298 10.7721 13.298C10.7226 13.298 10.6702 13.2951 10.6207 13.2922C9.66556 13.2312 8.77741 12.8599 8.11058 12.5437C6.29934 11.6705 4.70942 10.4318 3.39031 8.85951C2.30415 7.55698 1.57325 6.34438 1.08987 5.04476C0.789936 4.247 0.67637 3.60588 0.722961 3.02279Z" fill="#5A5A5A"/>
</svg>
