<svg width="21" height="18" viewBox="0 0 21 18" fill="none" xmlns="http://www.w3.org/2000/svg">
<path fill-rule="evenodd" clip-rule="evenodd" d="M10.7749 13.7789C10.0013 14.5292 9.23433 15.2669 8.47454 16.0105C8.20892 16.2709 7.91027 16.4149 7.52904 16.3949C7.26878 16.3812 7.12325 16.2674 7.04334 16.0216C6.46122 14.2229 5.87062 12.4287 5.29163 10.6283C5.23538 10.4536 5.15235 10.3687 4.97467 10.314C3.6033 9.89716 2.2346 9.47049 0.868139 9.03804C0.65788 8.97138 0.445835 8.88427 0.264146 8.76116C-0.0166465 8.57182 -0.057717 8.26293 0.194059 8.04071C0.426639 7.83582 0.704307 7.65716 0.992689 7.54338C2.66896 6.88204 4.35416 6.24204 6.03669 5.59627C10.3066 3.95493 14.5765 2.31493 18.8469 0.6736C19.6589 0.361156 20.283 0.801156 20.1986 1.67538C20.1446 2.23449 19.9991 2.78471 19.8817 3.33671C18.9545 7.69538 18.0264 12.0545 17.0943 16.4123C16.8729 17.4469 16.143 17.7172 15.2877 17.0892C13.8551 16.038 12.4239 14.9834 10.9923 13.9305C10.924 13.8812 10.853 13.8336 10.7749 13.7789ZM7.55939 15.1025C7.57546 15.098 7.59154 15.0936 7.60761 15.0896C7.61654 15.0487 7.62948 15.0087 7.63305 14.9683C7.72501 13.9803 7.82233 12.9927 7.90224 12.0029C7.92009 11.7825 7.99598 11.626 8.1625 11.4776C9.48298 10.302 10.7954 9.11893 12.1106 7.93849C13.5663 6.63138 15.0225 5.3256 16.4729 4.01316C16.5626 3.93227 16.6001 3.79449 16.6617 3.68249C16.5251 3.66782 16.3787 3.61316 16.2546 3.64516C16.0854 3.68871 15.9251 3.78649 15.7742 3.88116C12.5614 5.89582 9.35129 7.91404 6.13624 9.92471C5.95455 10.0385 5.92062 10.1349 5.98981 10.3336C6.22686 11.0114 6.44247 11.6954 6.66613 12.378C6.96388 13.2865 7.26164 14.1945 7.55939 15.1025Z" fill="white"/>
</svg>
