<svg width="20" height="12" viewBox="0 0 20 12" fill="none" xmlns="http://www.w3.org/2000/svg">
<path d="M10.7956 0.584005C9.76924 0.588769 9.11476 0.590004 8.19208 0.590004C7.42036 0.590004 6.98696 0.901006 6.97318 1.08652C6.96059 1.25613 7.35444 1.39328 7.59393 1.53053C7.82511 1.67321 8.03388 2.12613 8.03388 2.43205V5.10062C8.03388 5.35422 7.976 5.53085 7.77022 5.69613C7.67218 5.77487 7.55566 5.79583 7.42971 5.79514C7.32778 5.79459 7.18915 5.77562 7.09372 5.65263C6.07722 4.34264 6.07387 4.18087 4.64989 1.54103C4.58082 1.41299 4.51259 1.27715 4.37115 1.17502C4.22971 1.07289 4.02012 1.00551 3.68411 1.00551C2.53954 1.00551 1.83317 1.02202 1.08057 1.02202C0.368207 1.02202 0.436728 1.45695 0.532144 1.65503C1.3862 3.428 2.25335 5.12087 3.25019 6.83916C4.41757 8.85143 5.48478 10.0601 7.28055 10.9283C7.69736 11.1298 8.44893 11.3378 9.31757 11.3378H11.1632C11.4004 11.3378 11.7945 11.1515 11.7945 10.9013V9.52273C11.7945 9.12849 12.1894 8.98515 12.4047 8.88822C12.6585 8.77402 12.9246 8.95405 13.0586 9.09672C14.0905 10.1949 13.9732 10.0754 14.9134 11.0588C15.1258 11.281 15.2862 11.3978 15.6878 11.3978C18.3994 11.3978 18.4016 11.4029 19.0492 11.3978C19.227 11.3964 19.4911 11.1308 19.5494 11.0273C19.6264 10.8906 19.8015 10.4028 19.5208 10.0867C18.5679 9.01392 17.5965 8.03163 16.6656 7.05667C16.5947 6.98233 16.541 6.88171 16.5391 6.77916C16.5369 6.66702 16.5998 6.55816 16.6656 6.46715C17.7097 5.02436 18.5722 3.80264 19.5102 2.28505C19.8152 1.79174 19.7757 1.44236 19.7197 1.32202C19.6547 1.18267 19.4549 0.990236 19.2255 0.989012C17.9728 0.982015 17.4309 0.964554 16.0946 0.966512C15.6955 0.967112 15.342 0.936593 15.1228 1.41503C14.5355 2.69707 13.5773 4.65338 12.7453 5.46663C12.5916 5.61673 12.3865 5.72826 12.2074 5.72914C12.0283 5.73001 11.8379 5.60856 11.8111 5.31812C11.7906 3.92281 11.8077 2.73241 11.8006 1.36552C11.7984 0.947715 11.6214 0.840212 11.4872 0.747507C11.3051 0.621753 11.0173 0.582954 10.7956 0.584005Z" fill="white"/>
</svg>
