<svg width="34" height="49" viewBox="0 0 34 49" fill="none" xmlns="http://www.w3.org/2000/svg">
<path d="M33.6536 41.8721L23.5719 16.9614C23.0129 15.5794 22.7292 14.1214 22.7292 12.6277V6.04304C22.7292 5.33398 23.0016 4.66733 23.4963 4.16586C24.0994 3.55451 24.4318 2.74147 24.4318 1.87681V0.943937C24.4318 0.422559 24.0146 0 23.5007 0H10.4997C9.98536 0 9.56852 0.422559 9.56852 0.943937V1.87681C9.56852 2.74147 9.90061 3.55451 10.5037 4.16586C10.9984 4.66733 11.2708 5.33398 11.2708 6.04341V12.6277C11.2708 14.1214 10.9875 15.5794 10.428 16.9614L7.65782 23.8064C7.65673 23.809 7.65564 23.8116 7.65455 23.8141L0.34639 41.8721C-0.238859 43.3186 -0.075542 44.9576 0.783599 46.2559C1.64274 47.5545 3.07622 48.3296 4.61846 48.3296H29.3815C30.9238 48.3296 32.3576 47.5545 33.2167 46.2559C34.0755 44.9572 34.2388 43.3186 33.6536 41.8721ZM12.151 17.6778C12.8029 16.0676 13.1331 14.3685 13.1331 12.6277V6.04304C13.1331 4.82994 12.6672 3.6891 11.8208 2.83107C11.572 2.57887 11.4338 2.24406 11.4308 1.88787H22.5695C22.5666 2.24406 22.4284 2.5785 22.1792 2.83107C21.3332 3.6891 20.8669 4.82957 20.8669 6.04304V12.6274C20.8669 14.3681 21.1975 16.0672 21.8489 17.6774L24.0972 23.2327H9.9028L12.151 17.6778ZM31.6698 45.2043C31.1496 45.9908 30.3156 46.4417 29.3815 46.4417H4.61846C3.68475 46.4417 2.8507 45.9908 2.3302 45.2043C1.93773 44.611 1.78787 43.923 1.88972 43.2445H3.42395C3.93791 43.2445 4.35511 42.8216 4.35511 42.3006C4.35511 41.7792 3.93791 41.3566 3.42395 41.3566H2.56845L3.63783 38.7136H5.20843C5.72275 38.7136 6.1396 38.2907 6.1396 37.7697C6.1396 37.2483 5.72275 36.8257 5.20843 36.8257H4.40203L5.47141 34.1827H7.0864C7.60072 34.1827 8.01756 33.7598 8.01756 33.2388C8.01756 32.7174 7.60072 32.2948 7.0864 32.2948H6.23562L7.30537 29.6518H8.964C9.47832 29.6518 9.89516 29.2289 9.89516 28.7079C9.89516 28.1865 9.47832 27.7639 8.964 27.7639H8.06921L9.13895 25.1209H24.861L31.9306 42.5889C32.2849 43.4646 32.1899 44.4181 31.6698 45.2043Z" fill="#6146EE"/>
<path d="M28.9203 42.1602C28.7115 41.6691 28.1296 41.4343 27.6197 41.635C27.1103 41.8361 26.866 42.3966 27.0744 42.8877L27.0799 42.8997C27.238 43.2715 27.61 43.4966 28.003 43.4966C28.1288 43.4966 28.2566 43.4737 28.3804 43.4249C28.8899 43.2238 29.1341 42.6629 28.9254 42.1722L28.9203 42.1602Z" fill="black"/>
<path d="M27.9327 38.3874L24.7247 30.5237C24.5371 30.0634 24.014 29.8431 23.556 30.032C23.0983 30.2207 22.8796 30.7471 23.0672 31.2074L26.2752 39.0712C26.4172 39.4199 26.7514 39.6304 27.1045 39.6304C27.2175 39.6304 27.3326 39.6089 27.4439 39.5628C27.9016 39.3742 28.1206 38.8477 27.9327 38.3874Z" fill="black"/>
</svg>
