<svg width="45" height="51" viewBox="0 0 45 51" fill="none" xmlns="http://www.w3.org/2000/svg">
<path d="M23.3654 6.9231H30.2885V8.65386H23.3654C23.1359 8.65386 22.9158 8.56269 22.7535 8.4004C22.5912 8.23811 22.5 8.01799 22.5 7.78848C22.5 7.55897 22.5912 7.33885 22.7535 7.17656C22.9158 7.01427 23.1359 6.9231 23.3654 6.9231Z" fill="#6146EE"/>
<path d="M0 15.5769H24.2308V36.3461H0V15.5769Z" fill="#B38B63"/>
<path d="M22.5 15.5769V27.6923C22.5 29.0694 21.953 30.3901 20.9792 31.3638C20.0055 32.3376 18.6848 32.8846 17.3077 32.8846H0V36.3461H24.2308V15.5769H22.5Z" fill="#A97C50"/>
<path d="M29.4231 8.65381V13.8461C29.4231 15.2232 29.9701 16.5439 30.9439 17.5176C31.9176 18.4914 33.2383 19.0384 34.6154 19.0384V22.5H39.8077V19.0384C40.3278 18.7784 40.7652 18.3787 41.0709 17.8841C41.3766 17.3895 41.5385 16.8195 41.5385 16.238V8.65381H29.4231Z" fill="#FFBCAB"/>
<path d="M39.8078 22.5H32.8847C31.5076 22.5 30.1869 23.047 29.2132 24.0208C28.2394 24.9945 27.6924 26.3152 27.6924 27.6923V46.7308H45.0001V27.6923C45.0001 26.3152 44.453 24.9945 43.4793 24.0208C42.5055 23.047 41.1849 22.5 39.8078 22.5Z" fill="#6146EE"/>
<path d="M39.8077 34.6153V29.423C39.8077 28.5049 39.4431 27.6245 38.7939 26.9753C38.1447 26.3261 37.2643 25.9614 36.3462 25.9614C35.4282 25.9614 34.5477 26.3261 33.8985 26.9753C33.2494 27.6245 32.8847 28.5049 32.8847 29.423V32.8845C32.8847 33.3435 32.7023 33.7838 32.3777 34.1083C32.0532 34.4329 31.6129 34.6153 31.1539 34.6153H20.7693V41.5383H32.8847C34.7208 41.5383 36.4817 40.809 37.78 39.5106C39.0784 38.2123 39.8077 36.4514 39.8077 34.6153Z" fill="#2A2826"/>
<path d="M20.7692 33.75H15.5769V36.3462V39.8077V42.4038H20.7692V41.5385V34.6154V33.75Z" fill="#6146EE"/>
<path d="M42.4038 8.65385V6.92308C42.4038 5.08696 41.6744 3.32605 40.376 2.02772C39.0777 0.729394 37.3168 0 35.4807 0C33.6446 0 31.8837 0.729394 30.5853 2.02772C29.287 3.32605 28.5576 5.08696 28.5576 6.92308V8.65385H42.4038Z" fill="#6146EE"/>
<path d="M12.1154 22.5L14.7116 24.2308V15.5769H9.51929V24.2308L12.1154 22.5Z" fill="black"/>
<path d="M8.65381 36.3462C8.65381 37.2642 9.01851 38.1447 9.66767 38.7939C10.3168 39.443 11.1973 39.8077 12.1153 39.8077H15.5769V36.3462H8.65381Z" fill="#FFBCAB"/>
<path d="M27.6924 46.7307H45.0001V50.1923H27.6924V46.7307Z" fill="#6D6E71"/>
</svg>
