<svg width="63" height="36" viewBox="0 0 63 36" fill="none" xmlns="http://www.w3.org/2000/svg">
<path d="M61 26.534V28.6893L49.268 33L38.3959 32.7387L16.8089 32.2187L4.47298 31.9223L0.206792 27.6117C0.206792 27.6117 -0.25849 22.3311 0.206792 17.9127C0.270785 17.2985 0.36944 16.5845 0.493426 15.8086C0.712069 14.4305 1.00804 12.8558 1.328 11.2891C2.21057 6.97849 3.27445 2.7325 3.40643 2.82545L18.9767 0.0491175C19.7004 -0.0798233 20.4461 0.046909 21.0882 0.408013C21.7304 0.769118 22.23 1.34258 22.503 2.03202L22.7563 2.67188L25.4133 9.38302L25.8039 10.3691C25.8039 10.3691 31.0967 13.66 36.3988 16.4282C38.5705 17.5625 40.7436 18.6092 42.5554 19.3069C43.3492 19.6268 44.1674 19.8814 45.0018 20.068C45.3418 20.1367 45.695 20.2055 46.059 20.2742C49.368 20.8978 53.5035 21.4986 56.1645 21.8637C56.9992 21.9788 57.7935 22.2978 58.4785 22.7931C59.1636 23.2884 59.7188 23.945 60.0961 24.706L61 26.534Z" fill="#E4E4E3"/>
<path d="M61.4328 26.3706V28.5104L49.6637 32.7901L38.7572 32.5307L32.5449 31.7202L40.0344 24.5785C40.0344 24.5785 46.2961 24.9075 49.6637 24.5785C52.0202 24.3484 55.48 22.9081 57.5476 21.9612C58.8434 22.4 59.9137 23.3324 60.526 24.5557L61.4328 26.3706Z" fill="#6146EE"/>
<path d="M17.1019 32.0144L4.72688 31.7202L0.447192 27.4405C0.447192 27.4405 -0.0195613 22.1979 0.447192 17.8112C0.511387 17.2013 0.610355 16.4925 0.734733 15.7222L12.2163 21.021L17.1019 32.0144Z" fill="#6146EE"/>
<path d="M42.9298 19.1955L38.9645 23.1609C38.9645 23.1609 33.6148 22.091 27.1953 18.8812C20.7758 15.6715 16.4961 9.25192 16.4961 9.25192L23.0681 2.67993L25.7335 9.34287L26.1254 10.3218C26.1254 10.3218 26.7767 10.7231 27.852 11.361C28.3909 11.682 29.0356 12.0618 29.7591 12.4817C30.4198 12.8656 31.1473 13.2815 31.9163 13.7162C32.5396 14.0679 33.1922 14.4317 33.8623 14.7981C36.9075 16.4645 40.2992 18.1938 42.9298 19.1955Z" fill="#6146EE"/>
<path d="M63 29.3333C58.6552 31.5556 49.9655 36 36.931 36C26.7743 36 10.0223 35.3254 3.1204 35.0278C2.28079 34.9913 1.4874 34.6245 0.905945 34.0038C0.324485 33.3832 -9.10139e-05 32.5567 1.91437e-08 31.6971V27.1111C1.91437e-08 27.1111 23.8966 29.3333 36.931 29.3333C49.9655 29.3333 57.569 28.2222 61.9138 26L63 29.3333Z" fill="#CACAC9"/>
<path d="M26 9.58773C23.5716 11.4914 18.5712 15 14.6988 15C13.9923 14.9924 13.2873 14.9322 12.5892 14.8197C9.02358 14.2718 4.59449 12.6036 2 11.5354C2.2006 10.5334 2.40917 9.53543 2.61508 8.59117C3.31385 5.38675 3.97011 2.81414 4.07107 2.88709L19.5862 0.0501891C20.3074 -0.0815648 21.0503 0.0479324 21.6902 0.416915C22.3301 0.785897 22.8279 1.37187 23.1 2.07635L23.262 2.49617L24.3102 5.21194L26 9.58773Z" fill="#4E4E4E"/>
<path d="M24 4.64448L12.4419 14C8.92593 13.4665 4.55841 11.8421 2 10.802C2.19781 9.8262 2.40348 8.85446 2.60653 7.93499L22.9664 2L24 4.64448Z" fill="#6146EE"/>
<path d="M46 20.0374L37.3446 30L30 29.8671C31.6365 28.0018 34.5301 24.4792 35.2873 22.0836C35.928 20.0586 36.1853 17.6291 36.2885 16C37.7789 16.8131 39.2706 17.5838 40.647 18.2216C41.2863 18.52 41.9002 18.7901 42.4778 19.022C42.5877 19.0659 42.6949 19.1097 42.8021 19.1493C43.4968 19.4297 44.2105 19.6542 44.9372 19.821C45.2789 19.8931 45.6341 19.9653 46 20.0374Z" fill="#6146EE"/>
<path d="M30 12.1214L26.724 15L25 13.4851L27.8282 11C28.442 11.3212 29.1761 11.7012 30 12.1214Z" fill="#4E4E4E"/>
<path d="M34 14.8582L31.437 17L30 15.7992L32.153 14C32.7445 14.279 33.364 14.5675 34 14.8582Z" fill="#4E4E4E"/>
<path d="M38 16.8582L35.437 19L34 17.7992L36.153 16C36.7445 16.279 37.364 16.5675 38 16.8582Z" fill="#4E4E4E"/>
<path d="M43 19.0509L40.523 22L39 20.1866L40.8365 18C41.4783 18.338 42.0945 18.644 42.6744 18.9067C42.7847 18.9563 42.8924 19.006 43 19.0509Z" fill="#4E4E4E"/>
</svg>
