<svg width="42" height="50" viewBox="0 0 42 50" fill="none" xmlns="http://www.w3.org/2000/svg">
<path d="M39.7814 32.9357C38.4557 36.5284 36.4509 39.6523 33.8218 42.2197C30.8292 45.1419 26.9106 47.4639 22.1747 49.1203C22.0193 49.1745 21.8571 49.2189 21.6942 49.2517C21.479 49.2942 21.26 49.3171 21.0429 49.3201H21.0003C20.7689 49.3201 20.5364 49.2968 20.3057 49.2517C20.1428 49.2189 19.9829 49.1745 19.8282 49.1215C15.0867 47.4677 11.1632 45.1468 8.16759 42.2246C5.53737 39.6572 3.53291 36.5352 2.20914 32.9424C-0.197938 26.4102 -0.0609715 19.2141 0.0492795 13.4314L0.0511608 13.3426C0.0733616 12.8651 0.0876603 12.3635 0.0955623 11.8096C0.135825 9.09022 2.29795 6.84042 5.01772 6.68878C10.6883 6.37233 15.075 4.5229 18.8232 0.869564L18.8559 0.839461C19.4783 0.26864 20.2625 -0.0113149 21.0429 0.000349952C21.7954 0.0101333 22.545 0.289712 23.1452 0.839461L23.1771 0.869564C26.9261 4.5229 31.3128 6.37233 36.9833 6.68878C39.7031 6.84042 41.8652 9.09022 41.9055 11.8096C41.9134 12.3673 41.9277 12.8681 41.9499 13.3426L41.951 13.3802C42.0609 19.1739 42.1971 26.3842 39.7814 32.9357Z" fill="#6146EE"/>
<path d="M39.7816 32.9355C38.456 36.5283 36.4511 39.6522 33.822 42.2196C30.8295 45.1418 26.9108 47.4638 22.175 49.1202C22.0195 49.1744 21.8574 49.2188 21.6944 49.2516C21.4792 49.2941 21.2602 49.317 21.0431 49.32V0.000244141C21.7957 0.0100275 22.5452 0.289606 23.1454 0.839355L23.1774 0.869458C26.9263 4.52279 31.313 6.37222 36.9836 6.68868C39.7033 6.84032 41.8655 9.09011 41.9057 11.8095C41.9136 12.3672 41.9279 12.868 41.9501 13.3425L41.9513 13.3801C42.0611 19.1737 42.1973 26.3841 39.7816 32.9355Z" fill="#6146EE"/>
<path d="M33.2912 24.6601C33.2912 31.423 27.8001 36.928 21.0428 36.9521H20.9996C14.2223 36.9521 8.70752 31.4377 8.70752 24.6601C8.70752 17.8828 14.2223 12.3684 20.9996 12.3684H21.0428C27.8001 12.3925 33.2912 17.8975 33.2912 24.6601Z" fill="white"/>
<path d="M33.2915 24.6601C33.2915 31.423 27.8004 36.928 21.0431 36.9521V12.3684C27.8004 12.3925 33.2915 17.8975 33.2915 24.6601Z" fill="white"/>
<path d="M26.5787 22.8901L21.0428 28.4267L19.8466 29.6229C19.564 29.9055 19.1934 30.0466 18.8231 30.0466C18.4525 30.0466 18.0822 29.9055 17.7992 29.6229L15.2273 27.0499C14.6622 26.4847 14.6622 25.5692 15.2273 25.0037C15.7918 24.4385 16.7084 24.4385 17.2736 25.0037L18.8231 26.5532L24.5324 20.8438C25.0976 20.2783 26.0142 20.2783 26.5787 20.8438C27.1439 21.409 27.1439 22.3256 26.5787 22.8901Z" fill="black"/>
<path d="M26.579 22.8901L21.0431 28.4267V24.3331L24.5327 20.8438C25.0979 20.2783 26.0145 20.2783 26.579 20.8438C27.1441 21.409 27.1441 22.3256 26.579 22.8901Z" fill="black"/>
</svg>
