<svg width="111" height="111" viewBox="0 0 111 111" fill="none" xmlns="http://www.w3.org/2000/svg">
<g clip-path="url(#clip0)">
<path d="M35.8079 29.8369C33.3074 32.0654 29.926 35.5369 37.4325 37.1356C39.9848 37.6793 41.9414 38.8949 43.5159 39.9352C37.9437 40.9576 32.1466 44.1828 28.2258 47.2428C26.7589 48.3878 20.9344 52.4422 11.2736 53.1048C9.83181 53.2037 9.13219 54.9052 10.0891 55.9885C19.2326 66.3407 31.9231 72.1274 46.2933 72.5316C46.2933 72.5316 42.6461 76.7408 35.9375 78.9631C34.1309 79.5615 33.755 81.9674 35.3307 83.0349C35.6333 83.2399 35.9364 83.4302 36.231 83.6021C50.074 91.6818 66.9632 95.7077 82.772 92.4138C109.247 86.9068 117.155 48.2018 100.845 27.432C84.8875 7.11105 54.591 13.0889 35.8079 29.8369Z" fill="#ED694A"/>
<path d="M84.5034 86.9756C68.5266 90.2265 51.4708 86.3228 37.4069 78.4255C36.9342 78.6139 36.4455 78.7947 35.9377 78.9629C34.1311 79.5613 33.7552 81.9673 35.3309 83.0348C35.6335 83.2397 35.9366 83.4298 36.2312 83.6018C50.0742 91.6814 66.9634 95.7073 82.7722 92.4134C94.848 89.9015 103.058 80.482 106.872 69.0087C102.395 77.9388 94.8348 84.8768 84.5034 86.9756Z" fill="#D8553A"/>
<path d="M46.1037 67.0402C33.065 66.4366 21.4325 61.5592 12.562 52.9924C12.0663 53.0437 11.6233 53.0807 11.2871 53.1039C9.83293 53.2052 9.08201 54.8435 10.0305 55.922C18.8255 65.9202 31.3814 72.1122 46.2931 72.5314L47.7539 70.7024C48.4733 69.8016 48.4594 68.5677 47.8235 67.6894C47.3909 67.1646 46.7283 67.0812 46.1037 67.0402Z" fill="#D8553A"/>
<path d="M55.0187 36.3026C53.1718 37.9484 50.6741 40.5127 56.2187 41.6934C58.1036 42.0949 59.5491 42.9931 60.7121 43.7611C56.5963 44.5161 52.3143 46.8985 49.4185 49.1586C48.335 50.0043 44.0331 52.9989 36.897 53.4884C35.8319 53.5615 35.3154 54.8181 36.0221 55.6182C42.7755 63.2646 52.1494 67.5389 62.7632 67.8372C62.7632 67.8372 60.0694 70.9463 55.1143 72.5875C53.78 73.0295 53.5023 74.8068 54.6662 75.5951C54.8895 75.7464 55.1137 75.8871 55.3312 76.0141C65.5559 81.982 78.0305 84.9557 89.7074 82.5228C109.262 78.4552 115.103 49.8669 103.056 34.5259C91.2701 19.5166 68.8925 23.9319 55.0187 36.3026Z" fill="#F4A32C"/>
<path d="M91.3101 77.1393C79.8988 79.2787 67.7203 76.736 57.6208 71.559C56.8638 71.9327 56.0277 72.2852 55.1143 72.5879C53.78 73.0299 53.5022 74.8071 54.666 75.5955C54.8894 75.7468 55.1135 75.8874 55.3312 76.0144C65.5559 81.9822 78.0305 84.9556 89.7072 82.5231C98.8021 80.6312 104.928 73.4347 107.67 64.7346C104.473 70.8989 98.9378 75.7113 91.3101 77.1393Z" fill="#E89528"/>
<path d="M72.5569 42.2049C71.3068 43.319 69.6158 45.0551 73.3692 45.8544C74.6455 46.126 75.6237 46.7341 76.4109 47.2542C73.6246 47.7655 70.7261 49.3779 68.7659 50.9081C68.0324 51.4804 65.1203 53.5076 60.2897 53.8392C59.5687 53.8887 59.2189 54.7392 59.6975 55.2809C64.2693 60.457 70.6147 63.3504 77.7995 63.5524C77.7995 63.5524 75.9758 65.6572 72.6217 66.768C71.7185 67.0672 71.5306 68.2702 72.3183 68.8038C72.4694 68.9064 72.6212 69.0013 72.7685 69.0875C79.69 73.1272 88.1345 75.1403 96.0391 73.4935C109.277 70.74 113.231 51.3875 105.075 41.0027C102.283 37.4465 98.3099 35.211 93.8884 34.7084C87.1916 33.9495 79.045 36.4199 72.5569 42.2049Z" fill="#F4D44E"/>
<path d="M88.8321 47.6823C88.1355 48.303 87.1935 49.2701 89.2845 49.7154C89.9955 49.8668 90.5406 50.2054 90.9792 50.4953C89.4269 50.7802 87.8119 51.6785 86.7199 52.5309C86.3112 52.8498 84.6887 53.9794 81.9976 54.1641C81.5958 54.1917 81.4012 54.6657 81.6675 54.9673C84.2146 57.8509 87.7498 59.4631 91.7527 59.5756C91.7527 59.5756 90.7367 60.7481 88.8679 61.3671C88.3646 61.5339 88.2598 62.2041 88.6989 62.5012C88.7832 62.5583 88.8677 62.6112 88.9498 62.659C92.806 64.9097 97.5106 66.0312 101.915 65.1136C111.958 63.0243 111.903 44.7769 100.716 43.5053C96.9853 43.083 92.4465 44.4593 88.8321 47.6823Z" fill="#EAE9E8"/>
<path d="M103.959 60.9051C100.019 61.829 95.8116 60.7142 92.3654 58.4692C92.292 58.4215 92.2166 58.3685 92.1412 58.3117C91.749 58.015 91.8435 57.3448 92.2939 57.1774C93.9665 56.5558 94.8772 55.3818 94.8772 55.3818C91.9351 55.294 89.2782 54.1916 87.1623 52.2045C86.55 52.634 85.0697 53.9536 81.9978 54.1643C81.596 54.1919 81.4015 54.666 81.6677 54.9675C84.2149 57.8511 87.7501 59.4634 91.7529 59.5758C91.7529 59.5758 90.7369 60.7484 88.8684 61.3674C88.365 61.534 88.2603 62.2043 88.6994 62.5015C88.7837 62.5586 88.8682 62.6115 88.9502 62.6592C92.8063 64.9099 97.5111 66.0315 101.915 65.1139C105.997 64.2649 108.493 60.5824 109.139 56.4825C108.021 58.6837 106.275 60.3633 103.959 60.9051Z" fill="#F7E7A1"/>
<path d="M14.9595 69.6098C11.2929 64.9742 4.31602 64.8894 0.533107 69.4133C4.19955 74.0489 11.1766 74.1339 14.9595 69.6098Z" fill="#D8553A"/>
<path d="M45.6371 15.0648C41.9705 10.4292 34.9936 10.3444 31.2107 14.8683C32.8863 16.9871 41.8542 19.5887 45.6371 15.0648Z" fill="#D8553A"/>
<path d="M47.3707 96.306C44.728 92.9652 39.7 92.9039 36.9733 96.1644C38.181 97.6913 44.6442 99.5665 47.3707 96.306Z" fill="#D8553A"/>
<path d="M25.7782 38.774C23.1355 35.4332 18.1075 35.3719 15.3809 38.6324C18.0234 41.9732 23.0518 42.0343 25.7782 38.774Z" fill="#D8553A"/>
<path d="M61.1157 63.5984C52.1681 62.7176 44.2496 59.1883 38.2555 53.3618C37.8146 53.4139 37.3621 53.4567 36.8971 53.4885C35.832 53.5616 35.3155 54.8182 36.0222 55.6183C41.3737 61.6775 48.3721 65.6147 56.3277 67.1383L56.327 67.1404C56.9171 67.2534 57.777 67.3953 58.4528 67.4868C58.4534 67.4866 58.4539 67.4864 58.4545 67.486C59.865 67.6772 61.302 67.7964 62.7635 67.8375C62.7969 67.6781 64.7061 64.0848 61.1157 63.5984Z" fill="#E89528"/>
<path d="M97.9833 68.2316C90.5999 69.6907 82.7671 68.2557 76.0067 65.0778C75.1605 65.6641 74.0258 66.3028 72.6216 66.7678C71.7184 67.0672 71.5305 68.27 72.3182 68.8038C72.4693 68.9062 72.6211 69.0016 72.7683 69.0875C79.6899 73.1272 88.1343 75.1403 96.039 73.4935C102.238 72.2038 106.401 67.2736 108.238 61.3292C105.885 64.7718 102.435 67.3532 97.9833 68.2316Z" fill="#E8C842"/>
<path d="M74.659 57.8794C70.9717 57.3122 66.9219 55.7458 63.5513 53.3209C62.5869 53.5668 61.4984 53.7558 60.2896 53.8388C59.5686 53.8884 59.2188 54.739 59.6975 55.2805C62.5461 58.5056 66.0849 60.8408 70.0846 62.1945L70.0837 62.1979C70.7121 62.4109 71.7538 62.7141 72.5768 62.9004C72.5764 62.899 72.5764 62.8975 72.5758 62.896C74.2551 63.2776 76.0002 63.5009 77.7993 63.5515C78.1952 60.6959 77.5191 58.32 74.659 57.8794Z" fill="#E8C842"/>
</g>
<defs>
<clipPath id="clip0">
<rect y="108.551" width="108.561" height="108.561" transform="rotate(-89.2197 0 108.551)" fill="white"/>
</clipPath>
</defs>
</svg>
