<svg width="280" height="33" viewBox="0 0 280 33" fill="none" xmlns="http://www.w3.org/2000/svg">
<path d="M18.9588 16.0733C20.4808 15.6788 21.701 14.8476 22.6325 13.5656C23.5641 12.2835 24.0233 10.6916 24.0233 8.78964C24.0233 6.09878 23.1705 4.05598 21.4779 2.63306C19.7723 1.21015 17.4238 0.505737 14.4061 0.505737H0V32.5566H14.7472C17.9486 32.5566 20.4152 31.7958 22.1208 30.2743C23.8396 28.7527 24.6924 26.5972 24.6924 23.8218C24.6924 21.9481 24.1807 20.3139 23.1573 18.8909C22.134 17.4539 20.7301 16.5241 18.9588 16.0733ZM8.30516 7.60623H12.4249C14.5373 7.60623 15.5869 8.57832 15.5869 10.5084C15.5869 12.3822 14.5504 13.312 12.4643 13.312H8.29204V7.60623H8.30516ZM12.976 25.3997H8.29204V19.5108H12.976C15.1408 19.5108 16.2167 20.5111 16.2167 22.4975C16.2298 24.4276 15.1408 25.3997 12.976 25.3997Z" fill="black"/>
<path d="M50.4083 2.19718C48.086 0.788352 45.5275 0.0980225 42.7198 0.0980225C39.9383 0.0980225 37.3798 0.80244 35.0444 2.19718C32.709 3.60601 30.8722 5.55019 29.5208 8.0579C28.1694 10.5656 27.5002 13.3833 27.5002 16.525C27.5002 19.6667 28.1694 22.4843 29.5208 24.992C30.8722 27.4997 32.709 29.4439 35.0444 30.8527C37.3798 32.2616 39.9383 32.9519 42.7198 32.9519C45.5013 32.9519 48.0466 32.2475 50.3689 30.8527C52.6912 29.4439 54.5149 27.4997 55.8663 24.992C57.2177 22.4843 57.8868 19.6667 57.8868 16.525C57.8868 13.3833 57.2177 10.5656 55.8794 8.0579C54.5543 5.55019 52.7174 3.60601 50.4083 2.19718ZM47.6399 22.4561C46.4328 23.9354 44.7928 24.668 42.7067 24.668C40.5943 24.668 38.9411 23.9354 37.7341 22.4561C36.527 20.9769 35.9235 19.0045 35.9235 16.525C35.9235 13.9891 36.527 11.9885 37.7341 10.5234C38.9411 9.05817 40.5943 8.32558 42.7067 8.32558C44.819 8.32558 46.4591 9.05817 47.6661 10.5234C48.8601 11.9885 49.4636 13.9891 49.4636 16.525C49.4636 19.0045 48.847 20.9769 47.6399 22.4561Z" fill="black"/>
<path d="M146.174 8.46674C147.499 8.46674 148.667 8.81894 149.677 9.53745C150.687 10.2419 151.435 11.228 151.907 12.496H160.632C160.186 10.0587 159.32 7.90321 158.061 6.04355C156.801 4.1839 155.161 2.76099 153.154 1.74663C151.146 0.732274 148.864 0.225098 146.305 0.225098C143.353 0.225098 140.781 0.91542 138.564 2.28198C136.36 3.64855 134.654 5.57864 133.46 8.05818C132.266 10.5377 131.663 13.3554 131.663 16.5252C131.663 19.6951 132.253 22.5128 133.46 24.9923C134.654 27.4718 136.36 29.3878 138.564 30.7685C140.768 32.1351 143.353 32.8254 146.305 32.8254C150.149 32.8254 153.338 31.7124 155.857 29.5005C158.376 27.2887 159.963 24.302 160.646 20.5545H151.921C151.448 21.8224 150.7 22.8227 149.69 23.5412C148.68 24.2597 147.512 24.626 146.187 24.626C144.363 24.626 142.881 23.8934 141.765 22.4141C140.637 20.9349 140.073 18.9766 140.073 16.5252C140.073 14.0739 140.637 12.1297 141.765 10.6645C142.868 9.19933 144.35 8.46674 146.174 8.46674Z" fill="black"/>
<path d="M174.054 0.505737H165.749V32.5425H188.106L188.027 25.442H173.975L174.054 0.505737Z" fill="black"/>
<path d="M192.541 32.5425H211.762V25.442H200.846V19.6517H210.502V12.9034H200.846V7.60623H211.762V0.505737H192.541V32.5425Z" fill="black"/>
<path d="M227.415 0.56189L216.499 32.4718H225.224L226.864 27.1324H237.439L239.079 32.4718H247.843L236.967 0.56189H227.415ZM228.937 20.4405L232.178 10.0292L235.379 20.4405H228.937Z" fill="black"/>
<path d="M271.695 0.519775V18.6232L260.739 0.519775H252.434V32.5284H260.739V14.6503L271.695 32.5284H280V0.519775H271.695Z" fill="black"/>
<path d="M123.318 2.67677C121.074 0.887562 118.214 0 114.75 0C112.467 0 110.499 0.422648 108.872 1.26795C107.232 2.11324 105.999 3.26848 105.146 4.71957C104.293 6.17067 103.9 7.79082 103.9 9.58003C103.9 9.83362 103.887 10.0731 103.9 10.3126V10.3267C103.926 12.8203 103.834 23.5415 103.834 23.781C103.834 24.5136 103.651 25.049 103.283 25.4153C102.916 25.7816 102.404 25.9647 101.761 25.9647C101 25.9647 100.384 25.7252 99.9244 25.2321C99.5964 24.8799 99.3471 24.415 99.2028 23.7951C99.0978 23.3584 99.0585 22.9075 99.0585 22.4567V18.9628H90.1235V23.0202C90.3203 26.176 91.4487 28.6133 93.4823 30.3602C95.5291 32.1072 98.2712 32.9666 101.709 32.9666C103.821 32.9666 105.71 32.6003 107.377 31.8536C109.043 31.1069 110.355 30.0221 111.313 28.5851C112.271 27.1481 112.743 25.4293 112.743 23.4288C112.743 23.2879 112.743 23.1611 112.743 23.0202V22.978C112.677 20.4139 112.743 9.60821 112.743 9.27009C112.743 8.5375 112.966 7.98805 113.373 7.59358C113.779 7.19911 114.357 7.00187 115.091 7.00187C115.905 7.00187 116.6 7.26955 117.164 7.819C117.729 8.36844 118.057 9.19964 118.135 10.3126L118.293 18.9628H126.978V10.3126C126.782 7.01596 125.561 4.46599 123.318 2.67677Z" fill="#6146EE"/>
<path d="M65.8376 30.2898C68.0811 32.079 70.9414 32.9666 74.4051 32.9666C76.6881 32.9666 78.6561 32.5439 80.283 31.6986C81.9231 30.8533 83.1564 29.6981 84.0092 28.247C84.862 26.7959 85.2556 25.1758 85.2556 23.3865C85.2556 23.133 85.2688 22.8935 85.2556 22.654V22.6399C85.2294 20.1462 85.3212 9.42505 85.3212 9.18555C85.3212 8.45296 85.5049 7.91761 85.8723 7.55132C86.2397 7.18502 86.7514 7.00187 87.3943 7.00187C88.1552 7.00187 88.7719 7.24137 89.2311 7.73446C89.5591 8.08667 89.8084 8.55158 89.9527 9.17147C90.0577 9.6082 90.097 10.059 90.097 10.5099V14.0178H99.032V9.94632C98.8352 6.79055 97.7068 4.35328 95.6732 2.60633C93.6264 0.859385 90.8843 0 87.4467 0C85.3344 0 83.445 0.36629 81.7788 1.11297C80.1125 1.85965 78.8004 2.94445 77.8427 4.38145C76.8849 5.81846 76.4126 7.53722 76.4126 9.53776C76.4126 9.67864 76.4126 9.80544 76.4126 9.94632V9.98859C76.4782 12.5527 76.4126 23.3584 76.4126 23.6965C76.4126 24.4291 76.1895 24.9785 75.7828 25.373C75.376 25.7675 74.7987 25.9647 74.064 25.9647C73.2506 25.9647 72.5552 25.697 71.991 25.1476C71.4268 24.5981 71.0988 23.7669 71.0201 22.654L70.8627 14.0037H62.177V22.654C62.3738 25.9506 63.594 28.5006 65.8376 30.2898Z" fill="#6146EE"/>
<path d="M124.197 23.936H121.14V32.9807H124.197V23.936Z" fill="#6146EE"/>
<path d="M68.0157 0H64.9587V9.05878H68.0157V0Z" fill="#6146EE"/>
</svg>
