<svg display="none" xmlns="http://www.w3.org/2000/svg" xmlns:xlink="http://www.w3.org/1999/xlink">
  <symbol id="logo" viewBox="0 0 280 33">
    <path d="M18.9588 16.0733C20.4808 15.6788 21.701 14.8476 22.6325 13.5656C23.5641 12.2835 24.0233 10.6916 24.0233 8.78964C24.0233 6.09878 23.1705 4.05598 21.4779 2.63306C19.7723 1.21015 17.4238 0.505737 14.4061 0.505737H0V32.5566H14.7472C17.9486 32.5566 20.4152 31.7958 22.1208 30.2743C23.8396 28.7527 24.6924 26.5972 24.6924 23.8218C24.6924 21.9481 24.1807 20.3139 23.1573 18.8909C22.134 17.4539 20.7301 16.5241 18.9588 16.0733ZM8.30516 7.60623H12.4249C14.5373 7.60623 15.5869 8.57832 15.5869 10.5084C15.5869 12.3822 14.5504 13.312 12.4643 13.312H8.29204V7.60623H8.30516ZM12.976 25.3997H8.29204V19.5108H12.976C15.1408 19.5108 16.2167 20.5111 16.2167 22.4975C16.2298 24.4276 15.1408 25.3997 12.976 25.3997Z" fill="black"/>
    <path d="M50.4083 2.19718C48.086 0.788352 45.5275 0.0980225 42.7198 0.0980225C39.9383 0.0980225 37.3798 0.80244 35.0444 2.19718C32.709 3.60601 30.8722 5.55019 29.5208 8.0579C28.1694 10.5656 27.5002 13.3833 27.5002 16.525C27.5002 19.6667 28.1694 22.4843 29.5208 24.992C30.8722 27.4997 32.709 29.4439 35.0444 30.8527C37.3798 32.2616 39.9383 32.9519 42.7198 32.9519C45.5013 32.9519 48.0466 32.2475 50.3689 30.8527C52.6912 29.4439 54.5149 27.4997 55.8663 24.992C57.2177 22.4843 57.8868 19.6667 57.8868 16.525C57.8868 13.3833 57.2177 10.5656 55.8794 8.0579C54.5543 5.55019 52.7174 3.60601 50.4083 2.19718ZM47.6399 22.4561C46.4328 23.9354 44.7928 24.668 42.7067 24.668C40.5943 24.668 38.9411 23.9354 37.7341 22.4561C36.527 20.9769 35.9235 19.0045 35.9235 16.525C35.9235 13.9891 36.527 11.9885 37.7341 10.5234C38.9411 9.05817 40.5943 8.32558 42.7067 8.32558C44.819 8.32558 46.4591 9.05817 47.6661 10.5234C48.8601 11.9885 49.4636 13.9891 49.4636 16.525C49.4636 19.0045 48.847 20.9769 47.6399 22.4561Z" fill="black"/>
    <path d="M146.174 8.46674C147.499 8.46674 148.667 8.81894 149.677 9.53745C150.687 10.2419 151.435 11.228 151.907 12.496H160.632C160.186 10.0587 159.32 7.90321 158.061 6.04355C156.801 4.1839 155.161 2.76099 153.154 1.74663C151.146 0.732274 148.864 0.225098 146.305 0.225098C143.353 0.225098 140.781 0.91542 138.564 2.28198C136.36 3.64855 134.654 5.57864 133.46 8.05818C132.266 10.5377 131.663 13.3554 131.663 16.5252C131.663 19.6951 132.253 22.5128 133.46 24.9923C134.654 27.4718 136.36 29.3878 138.564 30.7685C140.768 32.1351 143.353 32.8254 146.305 32.8254C150.149 32.8254 153.338 31.7124 155.857 29.5005C158.376 27.2887 159.963 24.302 160.646 20.5545H151.921C151.448 21.8224 150.7 22.8227 149.69 23.5412C148.68 24.2597 147.512 24.626 146.187 24.626C144.363 24.626 142.881 23.8934 141.765 22.4141C140.637 20.9349 140.073 18.9766 140.073 16.5252C140.073 14.0739 140.637 12.1297 141.765 10.6645C142.868 9.19933 144.35 8.46674 146.174 8.46674Z" fill="black"/>
    <path d="M174.054 0.505737H165.749V32.5425H188.106L188.027 25.442H173.975L174.054 0.505737Z" fill="black"/>
    <path d="M192.541 32.5425H211.762V25.442H200.846V19.6517H210.502V12.9034H200.846V7.60623H211.762V0.505737H192.541V32.5425Z" fill="black"/>
    <path d="M227.415 0.56189L216.499 32.4718H225.224L226.864 27.1324H237.439L239.079 32.4718H247.843L236.967 0.56189H227.415ZM228.937 20.4405L232.178 10.0292L235.379 20.4405H228.937Z" fill="black"/>
    <path d="M271.695 0.519775V18.6232L260.739 0.519775H252.434V32.5284H260.739V14.6503L271.695 32.5284H280V0.519775H271.695Z" fill="black"/>
    <path d="M123.318 2.67677C121.074 0.887562 118.214 0 114.75 0C112.467 0 110.499 0.422648 108.872 1.26795C107.232 2.11324 105.999 3.26848 105.146 4.71957C104.293 6.17067 103.9 7.79082 103.9 9.58003C103.9 9.83362 103.887 10.0731 103.9 10.3126V10.3267C103.926 12.8203 103.834 23.5415 103.834 23.781C103.834 24.5136 103.651 25.049 103.283 25.4153C102.916 25.7816 102.404 25.9647 101.761 25.9647C101 25.9647 100.384 25.7252 99.9244 25.2321C99.5964 24.8799 99.3471 24.415 99.2028 23.7951C99.0978 23.3584 99.0585 22.9075 99.0585 22.4567V18.9628H90.1235V23.0202C90.3203 26.176 91.4487 28.6133 93.4823 30.3602C95.5291 32.1072 98.2712 32.9666 101.709 32.9666C103.821 32.9666 105.71 32.6003 107.377 31.8536C109.043 31.1069 110.355 30.0221 111.313 28.5851C112.271 27.1481 112.743 25.4293 112.743 23.4288C112.743 23.2879 112.743 23.1611 112.743 23.0202V22.978C112.677 20.4139 112.743 9.60821 112.743 9.27009C112.743 8.5375 112.966 7.98805 113.373 7.59358C113.779 7.19911 114.357 7.00187 115.091 7.00187C115.905 7.00187 116.6 7.26955 117.164 7.819C117.729 8.36844 118.057 9.19964 118.135 10.3126L118.293 18.9628H126.978V10.3126C126.782 7.01596 125.561 4.46599 123.318 2.67677Z" fill="#6146EE"/>
    <path d="M65.8376 30.2898C68.0811 32.079 70.9414 32.9666 74.4051 32.9666C76.6881 32.9666 78.6561 32.5439 80.283 31.6986C81.9231 30.8533 83.1564 29.6981 84.0092 28.247C84.862 26.7959 85.2556 25.1758 85.2556 23.3865C85.2556 23.133 85.2688 22.8935 85.2556 22.654V22.6399C85.2294 20.1462 85.3212 9.42505 85.3212 9.18555C85.3212 8.45296 85.5049 7.91761 85.8723 7.55132C86.2397 7.18502 86.7514 7.00187 87.3943 7.00187C88.1552 7.00187 88.7719 7.24137 89.2311 7.73446C89.5591 8.08667 89.8084 8.55158 89.9527 9.17147C90.0577 9.6082 90.097 10.059 90.097 10.5099V14.0178H99.032V9.94632C98.8352 6.79055 97.7068 4.35328 95.6732 2.60633C93.6264 0.859385 90.8843 0 87.4467 0C85.3344 0 83.445 0.36629 81.7788 1.11297C80.1125 1.85965 78.8004 2.94445 77.8427 4.38145C76.8849 5.81846 76.4126 7.53722 76.4126 9.53776C76.4126 9.67864 76.4126 9.80544 76.4126 9.94632V9.98859C76.4782 12.5527 76.4126 23.3584 76.4126 23.6965C76.4126 24.4291 76.1895 24.9785 75.7828 25.373C75.376 25.7675 74.7987 25.9647 74.064 25.9647C73.2506 25.9647 72.5552 25.697 71.991 25.1476C71.4268 24.5981 71.0988 23.7669 71.0201 22.654L70.8627 14.0037H62.177V22.654C62.3738 25.9506 63.594 28.5006 65.8376 30.2898Z" fill="#6146EE"/>
    <path d="M124.197 23.936H121.14V32.9807H124.197V23.936Z" fill="#6146EE"/>
    <path d="M68.0157 0H64.9587V9.05878H68.0157V0Z" fill="#6146EE"/>
  </symbol>
  <symbol id="user" viewBox="0 0 12 16">
    <path d="M10.2622 6.97656H8.71011C7.91052 7.78206 6.80311 8.28184 5.5812 8.28184C4.35926 8.28184 3.25185 7.78206 2.45232 6.97656H0.900193C0.403116 6.97656 0 7.37968 0 7.87676V14.8983C0 15.3953 0.403116 15.7985 0.900193 15.7985H10.2622C10.7593 15.7985 11.1624 15.3953 11.1624 14.8983V7.87676C11.1624 7.37968 10.7593 6.97656 10.2622 6.97656Z" fill="#6146EE"/>
    <path d="M3.27772 6.9765C3.92189 7.45504 4.71712 7.74166 5.58113 7.74166C6.44514 7.74166 7.2404 7.45504 7.88454 6.9765C8.83389 6.27108 9.45196 5.14461 9.45196 3.87083C9.45199 1.73305 7.71891 0 5.58116 0C3.44338 0 1.71033 1.73305 1.71033 3.87083C1.71033 5.14461 2.3284 6.27111 3.27772 6.9765Z" fill="#6146EE"/>
  </symbol>
  <symbol id="whatsapp" viewBox="0 0 50 50">
    <path fill="none" stroke="#fff" stroke-miterlimit="10" stroke-width="1" d="M19.102,15.022c-0.479-1.137-0.966-0.983-1.329-1.001C17.429,14.005,17.036,14,16.642,14c-0.394,0-1.033,0.146-1.575,0.73S13,16.724,13,19.594s2.116,5.641,2.411,6.031c0.296,0.389,4.164,6.278,10.087,8.804c1.409,0.6,2.509,0.959,3.366,1.228c1.414,0.444,2.702,0.381,3.72,0.231c1.134-0.167,3.494-1.411,3.986-2.772c0.492-1.362,0.492-2.529,0.344-2.772c-0.148-0.243-0.542-0.389-1.132-0.681c-0.59-0.292-3.494-1.703-4.036-1.896c-0.542-0.195-0.935-0.292-1.329,0.292c-0.394,0.584-1.525,1.896-1.869,2.286c-0.344,0.389-0.689,0.438-1.279,0.146c-0.59-0.292-2.494-0.907-4.748-2.894c-1.756-1.546-2.941-3.455-3.285-4.039s-0.037-0.899,0.259-1.19c0.266-0.262,0.59-0.681,0.886-1.022c0.296-0.341,0.394-0.584,0.59-0.973s0.098-0.73-0.05-1.022C20.775,19.059,19.594,16.19,19.102,15.022z"/>
    <path fill="none" stroke="#fff" stroke-linejoin="round" stroke-miterlimit="10" stroke-width="1" d="M25,3C12.85,3,3,12.85,3,25c0,4.072,1.111,7.884,3.04,11.155L3,47l11.274-2.793C17.448,45.983,21.104,47,25,47c12.15,0,22-9.85,22-22S37.15,3,25,3z"/>
  </symbol>
  <symbol id="instagram" viewBox="0 0 24 24">
    <path d="M11.8453 5.6084C8.53177 5.6084 5.78625 8.29469 5.78625 11.6408C5.78625 14.9869 8.48444 17.6732 11.8453 17.6732C15.2062 17.6732 17.9044 14.9397 17.9044 11.6408C17.9044 8.34182 15.1589 5.6084 11.8453 5.6084ZM11.8453 15.5053C9.71519 15.5053 7.96374 13.7615 7.96374 11.6408C7.96374 9.52002 9.71519 7.77629 11.8453 7.77629C13.9755 7.77629 15.7269 9.52002 15.7269 11.6408C15.7269 13.7615 13.9755 15.5053 11.8453 15.5053Z" fill="white"/>
    <path d="M18.1405 6.83303C18.8986 6.83303 19.5132 6.22114 19.5132 5.46632C19.5132 4.71151 18.8986 4.09961 18.1405 4.09961C17.3823 4.09961 16.7677 4.71151 16.7677 5.46632C16.7677 6.22114 17.3823 6.83303 18.1405 6.83303Z" fill="white"/>
    <path d="M21.6917 1.93225C20.4609 0.659792 18.7095 0 16.7213 0H6.97C2.85172 0 0.106201 2.73342 0.106201 6.83356V16.4948C0.106201 18.5213 0.768913 20.265 2.09434 21.5375C3.37242 22.7628 5.07654 23.3755 7.01734 23.3755H16.674C18.7095 23.3755 20.4136 22.7157 21.6443 21.5375C22.9224 20.3122 23.5851 18.5684 23.5851 16.5419V6.83356C23.5851 4.85418 22.9224 3.15758 21.6917 1.93225ZM21.5023 16.5419C21.5023 18.0029 20.9816 19.1811 20.1296 19.9823C19.2775 20.7834 18.0941 21.2076 16.674 21.2076H7.01734C5.59724 21.2076 4.41383 20.7834 3.56177 19.9823C2.70971 19.134 2.28368 17.9558 2.28368 16.4948V6.83356C2.28368 5.41972 2.70971 4.24152 3.56177 3.39322C4.36649 2.59204 5.59724 2.16789 7.01734 2.16789H16.7687C18.1888 2.16789 19.3722 2.59204 20.2242 3.44034C21.0289 4.28865 21.5023 5.46685 21.5023 6.83356V16.5419Z" fill="white"/>
  </symbol>
  <symbol id="telegram" viewBox="0 0 21 18">
    <path fill-rule="evenodd" clip-rule="evenodd" d="M10.7749 13.7789C10.0013 14.5292 9.23433 15.2669 8.47454 16.0105C8.20892 16.2709 7.91027 16.4149 7.52904 16.3949C7.26878 16.3812 7.12325 16.2674 7.04334 16.0216C6.46122 14.2229 5.87062 12.4287 5.29163 10.6283C5.23538 10.4536 5.15235 10.3687 4.97467 10.314C3.6033 9.89716 2.2346 9.47049 0.868139 9.03804C0.65788 8.97138 0.445835 8.88427 0.264146 8.76116C-0.0166465 8.57182 -0.057717 8.26293 0.194059 8.04071C0.426639 7.83582 0.704307 7.65716 0.992689 7.54338C2.66896 6.88204 4.35416 6.24204 6.03669 5.59627C10.3066 3.95493 14.5765 2.31493 18.8469 0.6736C19.6589 0.361156 20.283 0.801156 20.1986 1.67538C20.1446 2.23449 19.9991 2.78471 19.8817 3.33671C18.9545 7.69538 18.0264 12.0545 17.0943 16.4123C16.8729 17.4469 16.143 17.7172 15.2877 17.0892C13.8551 16.038 12.4239 14.9834 10.9923 13.9305C10.924 13.8812 10.853 13.8336 10.7749 13.7789ZM7.55939 15.1025C7.57546 15.098 7.59154 15.0936 7.60761 15.0896C7.61654 15.0487 7.62948 15.0087 7.63305 14.9683C7.72501 13.9803 7.82233 12.9927 7.90224 12.0029C7.92009 11.7825 7.99598 11.626 8.1625 11.4776C9.48298 10.302 10.7954 9.11893 12.1106 7.93849C13.5663 6.63138 15.0225 5.3256 16.4729 4.01316C16.5626 3.93227 16.6001 3.79449 16.6617 3.68249C16.5251 3.66782 16.3787 3.61316 16.2546 3.64516C16.0854 3.68871 15.9251 3.78649 15.7742 3.88116C12.5614 5.89582 9.35129 7.91404 6.13624 9.92471C5.95455 10.0385 5.92062 10.1349 5.98981 10.3336C6.22686 11.0114 6.44247 11.6954 6.66613 12.378C6.96388 13.2865 7.26164 14.1945 7.55939 15.1025Z" fill="white"/>
  </symbol>
  <symbol id="facebook" viewBox="0 0 12 22">
    <path d="M7.23553 22V12.2222H10.3923L11.1815 8.14815H7.23553V6.51852C7.23553 4.88889 8.0263 4.07407 9.6031 4.07407H11.1815V0C10.3923 0 9.4137 0 8.02472 0C5.12444 0 3.28958 2.34748 3.28958 5.7037V8.14815H0.132812V12.2222H3.28958V22H7.23553Z" fill="white"/>
  </symbol>
  <symbol id="vk" viewBox="0 0 20 12">
    <path d="M10.7956 0.584005C9.76924 0.588769 9.11476 0.590004 8.19208 0.590004C7.42036 0.590004 6.98696 0.901006 6.97318 1.08652C6.96059 1.25613 7.35444 1.39328 7.59393 1.53053C7.82511 1.67321 8.03388 2.12613 8.03388 2.43205V5.10062C8.03388 5.35422 7.976 5.53085 7.77022 5.69613C7.67218 5.77487 7.55566 5.79583 7.42971 5.79514C7.32778 5.79459 7.18915 5.77562 7.09372 5.65263C6.07722 4.34264 6.07387 4.18087 4.64989 1.54103C4.58082 1.41299 4.51259 1.27715 4.37115 1.17502C4.22971 1.07289 4.02012 1.00551 3.68411 1.00551C2.53954 1.00551 1.83317 1.02202 1.08057 1.02202C0.368207 1.02202 0.436728 1.45695 0.532144 1.65503C1.3862 3.428 2.25335 5.12087 3.25019 6.83916C4.41757 8.85143 5.48478 10.0601 7.28055 10.9283C7.69736 11.1298 8.44893 11.3378 9.31757 11.3378H11.1632C11.4004 11.3378 11.7945 11.1515 11.7945 10.9013V9.52273C11.7945 9.12849 12.1894 8.98515 12.4047 8.88822C12.6585 8.77402 12.9246 8.95405 13.0586 9.09672C14.0905 10.1949 13.9732 10.0754 14.9134 11.0588C15.1258 11.281 15.2862 11.3978 15.6878 11.3978C18.3994 11.3978 18.4016 11.4029 19.0492 11.3978C19.227 11.3964 19.4911 11.1308 19.5494 11.0273C19.6264 10.8906 19.8015 10.4028 19.5208 10.0867C18.5679 9.01392 17.5965 8.03163 16.6656 7.05667C16.5947 6.98233 16.541 6.88171 16.5391 6.77916C16.5369 6.66702 16.5998 6.55816 16.6656 6.46715C17.7097 5.02436 18.5722 3.80264 19.5102 2.28505C19.8152 1.79174 19.7757 1.44236 19.7197 1.32202C19.6547 1.18267 19.4549 0.990236 19.2255 0.989012C17.9728 0.982015 17.4309 0.964554 16.0946 0.966512C15.6955 0.967112 15.342 0.936593 15.1228 1.41503C14.5355 2.69707 13.5773 4.65338 12.7453 5.46663C12.5916 5.61673 12.3865 5.72826 12.2074 5.72914C12.0283 5.73001 11.8379 5.60856 11.8111 5.31812C11.7906 3.92281 11.8077 2.73241 11.8006 1.36552C11.7984 0.947715 11.6214 0.840212 11.4872 0.747507C11.3051 0.621753 11.0173 0.582954 10.7956 0.584005Z" fill="white"/>
  </symbol>
  <symbol id="phone" viewBox="0 0 14 14">
    <path d="M2.83704 9.30626C4.22312 10.9569 5.89167 12.2565 7.79609 13.1761C8.52116 13.5184 9.49084 13.9246 10.5712 13.9942C10.6382 13.9971 10.7022 14 10.7692 14C11.4943 14 12.0767 13.7505 12.5513 13.237C12.5542 13.2341 12.56 13.2283 12.5629 13.2225C12.7318 13.0195 12.924 12.8367 13.125 12.6424C13.2618 12.5118 13.4016 12.3755 13.5355 12.2362C14.1558 11.5922 14.1558 10.7741 13.5297 10.1504L11.7796 8.40696C11.4826 8.09946 11.1274 7.93701 10.7546 7.93701C10.3819 7.93701 10.0237 8.09946 9.71797 8.40406L8.6755 9.4426C8.5794 9.38748 8.4804 9.33817 8.38721 9.29175C8.27073 9.23373 8.16299 9.17862 8.0669 9.1177C7.1176 8.5172 6.25567 7.73394 5.43158 6.72731C5.01518 6.20224 4.73563 5.76129 4.54053 5.31165C4.81425 5.06506 5.0705 4.80688 5.31802 4.5545C5.40538 4.46457 5.49565 4.37464 5.58592 4.28471C5.90041 3.9714 6.0693 3.60879 6.0693 3.24036C6.0693 2.87194 5.90332 2.50932 5.58592 2.19602L4.71816 1.33154C4.61624 1.23 4.52014 1.13137 4.42114 1.02984C4.22895 0.832574 4.02802 0.629507 3.83001 0.446747C3.53008 0.15375 3.17774 0 2.80501 0C2.43519 0 2.07993 0.153751 1.76835 0.449648L0.679282 1.5346C0.283257 1.92913 0.0590366 2.40779 0.0124454 2.96187C-0.0428816 3.6552 0.0852442 4.39204 0.417206 5.28264C0.926798 6.66059 1.69555 7.93991 2.83704 9.30626ZM0.722961 3.02279C0.757905 2.63697 0.906414 2.31496 1.18596 2.03647L2.26921 0.957315C2.4381 0.794861 2.62446 0.710734 2.80501 0.710734C2.98263 0.710734 3.16318 0.794861 3.32916 0.963116C3.52426 1.14298 3.70771 1.33154 3.90572 1.5317C4.00473 1.63324 4.10665 1.73477 4.20857 1.8392L5.07633 2.70369C5.25687 2.88355 5.35005 3.06631 5.35005 3.24617C5.35005 3.42603 5.25687 3.60879 5.07633 3.78865C4.98606 3.87857 4.89579 3.97141 4.80551 4.06133C4.5347 4.33402 4.28136 4.59221 4.00182 4.83879C3.99599 4.84459 3.99308 4.84749 3.98726 4.85329C3.74557 5.09407 3.78342 5.32325 3.84166 5.49731C3.84457 5.50601 3.84748 5.51181 3.8504 5.52051C4.07462 6.05719 4.38619 6.56776 4.87249 7.17696C5.74607 8.25031 6.66625 9.08288 7.67961 9.724C7.80482 9.80522 7.93877 9.86904 8.06399 9.93286C8.18046 9.99088 8.28821 10.046 8.3843 10.1069C8.39595 10.1127 8.40469 10.1185 8.41633 10.1243C8.51243 10.1736 8.60561 10.1969 8.69879 10.1969C8.93175 10.1969 9.08317 10.0489 9.13267 9.99959L10.2217 8.91463C10.3906 8.74637 10.5741 8.65644 10.7546 8.65644C10.9759 8.65644 11.1565 8.79279 11.27 8.91463L13.0259 10.661C13.3754 11.0091 13.3725 11.3862 13.0172 11.7547C12.8949 11.8852 12.7668 12.0099 12.6299 12.1405C12.4261 12.3378 12.2135 12.5408 12.0213 12.77C11.6865 13.1297 11.2875 13.298 10.7721 13.298C10.7226 13.298 10.6702 13.2951 10.6207 13.2922C9.66556 13.2312 8.77741 12.8599 8.11058 12.5437C6.29934 11.6705 4.70942 10.4318 3.39031 8.85951C2.30415 7.55698 1.57325 6.34438 1.08987 5.04476C0.789936 4.247 0.67637 3.60588 0.722961 3.02279Z" fill="#5A5A5A"/>
  </symbol>
  <symbol id="circle" viewBox="0 0 35 35">
    <path d="M27.0524 22.3764C27.7204 21.0405 28.2214 19.5376 28.2214 18.0347H34.7339C34.5669 20.8735 33.899 23.3784 32.7301 25.7162L27.0524 22.3764Z" fill="#6146EE"/>
    <path d="M2.00388 9.18439L7.68152 12.5242C7.01357 13.8601 6.51259 15.363 6.51259 16.8659H0C0.166988 14.194 0.834962 11.5222 2.00388 9.18439Z" fill="black"/>
    <path d="M16.8657 0V6.67953C15.3628 6.67953 13.8599 7.18052 12.524 7.84847L9.1842 2.00388C11.522 0.834962 14.0269 0.166988 16.8657 0Z" fill="black"/>
    <path d="M18.0342 34.9006V28.2211C19.5371 28.2211 21.04 27.7201 22.3759 27.0522L25.7157 32.8968C23.3779 34.0657 20.706 34.7336 18.0342 34.9006Z" fill="black"/>
    <path d="M12.524 27.0522C13.8599 27.7201 15.3628 28.0541 16.8657 28.2211V34.9006C14.0269 34.7336 11.522 34.0657 9.1842 32.8968L12.524 27.0522Z" fill="black"/>
    <path d="M23.2113 26.5512C24.5472 25.7162 25.5491 24.7143 26.384 23.3784L32.0617 26.7182C30.7258 29.056 28.7219 30.8929 26.384 32.3958L23.2113 26.5512Z" fill="black"/>
    <path d="M8.34929 23.3784C9.18423 24.7143 10.3532 25.7162 11.5221 26.5512L8.18234 32.2288C5.84451 30.8929 4.00759 28.889 2.5047 26.5512L8.34929 23.3784Z" fill="black"/>
    <path d="M11.5222 8.34941C10.1863 9.18436 9.1843 10.1863 8.34936 11.5222L2.67181 8.18242C4.00772 5.84458 6.01152 4.00772 8.34936 2.50482L11.5222 8.34941Z" fill="black"/>
    <path d="M0 18.0347H6.51259C6.51259 19.5376 7.01357 21.0405 7.68152 22.3764L2.00388 25.7162C0.834962 23.3784 0.166988 20.7065 0 18.0347Z" fill="black"/>
    <path d="M34.9005 16.8659H28.3879C28.3879 15.363 27.8869 13.8601 27.219 12.5242L32.8966 9.18439C34.0656 11.5222 34.7335 14.194 34.9005 16.8659Z" fill="#6146EE"/>
    <path d="M26.5512 11.5222C25.7163 10.1863 24.5473 9.18435 23.3784 8.34941L26.7182 2.67181C29.056 4.00772 30.8929 6.01157 32.3958 8.34941L26.5512 11.5222Z" fill="#6146EE"/>
    <path d="M22.3759 7.84847C21.04 7.18052 19.537 6.84652 18.0341 6.67953V0C20.8729 0.166988 23.3778 0.834962 25.7156 2.00388L22.3759 7.84847Z" fill="#6146EE"/>
  </symbol>
  <symbol id="delivery" viewBox="0 0 33 23">
    <path d="M32.0502 19.0326H28.0476V17.0276H30.0453V11.1811L28.3257 6.01497H21.0302V17.0276H22.0327V19.0326H19.0326V4.01001H29.7672L32.0502 10.8591V19.0326Z" fill="#6146EE"/>
    <path d="M24.5496 22.0399C22.6098 22.0399 21.0297 20.4598 21.0297 18.5199C21.0297 16.5801 22.6098 15 24.5496 15C26.4894 15 28.0695 16.5801 28.0695 18.5199C28.0631 20.4598 26.4894 22.0399 24.5496 22.0399ZM24.5496 16.76C23.5797 16.76 22.7896 17.55 22.7896 18.5199C22.7896 19.4898 23.5797 20.2799 24.5496 20.2799C25.5195 20.2799 26.3096 19.4898 26.3096 18.5199C26.3096 17.55 25.5195 16.76 24.5496 16.76Z" fill="black"/>
    <path d="M6.00737 19.0325H2.00476V12.0225H4.00241V17.0276H6.00737V19.0325Z" fill="#6146EE"/>
    <path d="M21.03 19.0325H12.015V17.0276H19.0324V2.00496H-0.00012207V0H21.03V19.0325Z" fill="#6146EE"/>
    <path d="M9.48986 21.98C7.56655 21.98 5.99988 20.4133 5.99988 18.49C5.99988 16.5667 7.56655 15 9.48986 15C11.4132 15 12.9799 16.5667 12.9799 18.49C12.9735 20.4133 11.4132 21.98 9.48986 21.98ZM9.48986 16.745C8.52821 16.745 7.74487 17.5283 7.74487 18.49C7.74487 19.4516 8.52821 20.235 9.48986 20.235C10.4515 20.235 11.2349 19.4516 11.2349 18.49C11.2349 17.5283 10.4515 16.745 9.48986 16.745Z" fill="black"/>
    <path d="M10.0168 4.01001H1.00183V6.01497H10.0168V4.01001Z" fill="#6146EE"/>
    <path d="M8.01233 8.01257H2.00476V10.0175H8.01233V8.01257Z" fill="#6146EE"/>
  </symbol>
  <symbol id="sneaker" viewBox="0 0 30 33">
    <path fill-rule="evenodd" clip-rule="evenodd" d="M17.4913 26.7043C20.5106 25.0918 23.4638 23.3121 26.553 21.4003C23.7979 22.6748 21.0779 23.8794 18.3229 24.9985L17.4913 26.7043Z" fill="black"/>
    <path fill-rule="evenodd" clip-rule="evenodd" d="M27.1597 9.86731C27.3657 10.2131 27.661 10.5007 27.7815 10.9048C28.8112 14.3787 24.5524 16.3799 22.8504 17.6777C21.8246 18.4626 21.1174 19.539 20.6277 20.899C19.4776 24.1048 19.3921 26.4246 16.8935 28.7094C13.7732 31.5655 9.39398 32.84 5.51987 32.6418C4.55231 32.5913 -0.137818 32.3271 0.141957 30.1821C1.33489 30.9554 2.94748 31.3712 4.49791 31.3828C6.08719 31.3945 7.6959 31.3012 9.25409 30.8893C11.7449 30.2326 14.3328 28.7638 16.3184 26.7937C17.694 25.4259 18.4673 23.6346 19.2949 21.7694C20.3441 19.403 21.0474 17.565 22.7144 15.7076C24.226 14.029 26.9344 12.634 27.1597 9.86731Z" fill="#6146EE"/>
    <path fill-rule="evenodd" clip-rule="evenodd" d="M11.3331 19.3408C9.32801 18.245 7.2025 18.3188 6.13779 18.96C5.96294 17.6155 6.81781 17.1842 7.52502 17.157C9.12984 17.1026 11.0144 17.3785 12.5882 18.2178C12.3473 18.688 11.8887 19.2009 11.3331 19.3408Z" fill="#6146EE"/>
    <path fill-rule="evenodd" clip-rule="evenodd" d="M13.0342 17.1493C10.8776 16.1584 8.06821 15.9408 7.05014 16.5547C6.68876 15.2103 7.73015 14.779 8.43736 14.7518C10.0189 14.6974 11.8685 14.9655 13.4306 15.7737C13.3062 16.2672 13.178 16.7257 13.0342 17.1493Z" fill="#6146EE"/>
    <path fill-rule="evenodd" clip-rule="evenodd" d="M13.6528 14.7983C11.5039 13.8346 8.74503 13.6287 7.73862 14.2349C7.37724 12.8904 8.41863 12.4591 9.12584 12.4319C10.6491 12.3775 12.4249 12.6262 13.952 13.3722C13.8471 13.8696 13.7499 14.3437 13.6528 14.7983Z" fill="#6146EE"/>
    <path fill-rule="evenodd" clip-rule="evenodd" d="M14.1421 12.4357C12.0166 11.5226 9.34316 11.3361 8.35617 11.9306C7.99479 10.5861 9.03618 10.1548 9.74339 10.1276C11.2316 10.0771 12.9569 10.3102 14.4568 11.0135C14.3441 11.5032 14.2392 11.9772 14.1421 12.4357Z" fill="#6146EE"/>
    <path fill-rule="evenodd" clip-rule="evenodd" d="M14.7214 9.92949C12.6114 9.05908 10.0157 8.8881 9.04819 9.47097C8.68681 8.12649 9.7282 7.69517 10.4354 7.66797C11.9081 7.61746 13.614 7.84672 15.1022 8.53061C14.9623 9.00856 14.838 9.47486 14.7214 9.92949Z" fill="#6146EE"/>
    <path fill-rule="evenodd" clip-rule="evenodd" d="M18.6382 5.86103C19.9283 5.93874 21.5292 6.20298 22.6289 5.24708C23.7402 4.2834 23.2584 2.67858 22.6289 1.50508C21.5137 -0.577696 19.2289 -0.484438 18.1175 1.69548C17.5619 2.79127 17.4181 3.12933 16.6953 4.12797C17.1267 4.37278 17.5696 4.51266 18.0398 4.58649C18.747 3.00887 19.971 0.374318 21.3039 3.35471C22.2015 5.35588 19.6718 5.35976 18.5411 5.19656C16.672 4.92456 15.7356 4.57872 14.6864 2.74852C13.9403 1.44291 12.0829 1.61776 11.3135 2.06463C9.99627 2.83013 10.5092 4.36112 9.71649 7.1783C10.6879 6.59544 13.2836 6.76641 15.3897 7.63683C15.9454 5.95429 17.3287 5.78331 18.6382 5.86103Z" fill="#6146EE"/>
    <path fill-rule="evenodd" clip-rule="evenodd" d="M23.7826 4.56702C24.4626 5.82212 25.0533 6.64591 25.7993 7.74169C27.6956 10.5122 22.3838 13.2595 20.9732 15.2451C18.3698 18.9016 18.2182 23.2032 15.164 26.0359C12.1836 28.7948 9.02836 29.9372 5.83425 30.0072C5.78762 26.6188 10.3884 24.1669 11.4259 20.0596C14.2081 19.0299 13.9011 14.705 15.9062 8.19633C16.5007 6.26899 18.1832 6.57208 19.5199 6.63813C21.2064 6.71974 22.9744 6.80522 23.7826 4.56702ZM21.9563 12.2686C18.5718 14.4252 18.0084 18.8511 15.9761 22.3405L14.5967 20.6114C16.8815 16.6906 17.1496 12.8204 20.7984 10.3374L21.9563 12.2686ZM5.10373 30.0033C3.37456 29.9761 1.82025 29.6458 0.0988517 29.094C-0.806533 24.8663 4.76178 24.1202 6.13345 19.8731C7.61782 19.1853 9.18767 19.4456 10.5594 20.1023C9.37419 24.163 5.07652 25.6162 5.10373 30.0033Z" fill="#6146EE"/>
    <path fill-rule="evenodd" clip-rule="evenodd" d="M13.6018 30.9593C19.481 28.0955 24.5208 24.6449 29.9998 20.7086C25.7526 23.0556 21.5793 25.2239 17.2 27.1551L14.888 29.4516L13.6018 30.9593Z" fill="black"/>
  </symbol>
  <symbol id="arrow-right" viewBox="0 0 9 13">
    <path d="M1 1L8 6.5L1 12" stroke="white"/>
  </symbol>
  <symbol id="about-sneaker" viewBox="0 0 63 36">
    <path d="M61 26.534V28.6893L49.268 33L38.3959 32.7387L16.8089 32.2187L4.47298 31.9223L0.206792 27.6117C0.206792 27.6117 -0.25849 22.3311 0.206792 17.9127C0.270785 17.2985 0.36944 16.5845 0.493426 15.8086C0.712069 14.4305 1.00804 12.8558 1.328 11.2891C2.21057 6.97849 3.27445 2.7325 3.40643 2.82545L18.9767 0.0491175C19.7004 -0.0798233 20.4461 0.046909 21.0882 0.408013C21.7304 0.769118 22.23 1.34258 22.503 2.03202L22.7563 2.67188L25.4133 9.38302L25.8039 10.3691C25.8039 10.3691 31.0967 13.66 36.3988 16.4282C38.5705 17.5625 40.7436 18.6092 42.5554 19.3069C43.3492 19.6268 44.1674 19.8814 45.0018 20.068C45.3418 20.1367 45.695 20.2055 46.059 20.2742C49.368 20.8978 53.5035 21.4986 56.1645 21.8637C56.9992 21.9788 57.7935 22.2978 58.4785 22.7931C59.1636 23.2884 59.7188 23.945 60.0961 24.706L61 26.534Z" fill="#E4E4E3"/>
    <path d="M61.4328 26.3706V28.5104L49.6637 32.7901L38.7572 32.5307L32.5449 31.7202L40.0344 24.5785C40.0344 24.5785 46.2961 24.9075 49.6637 24.5785C52.0202 24.3484 55.48 22.9081 57.5476 21.9612C58.8434 22.4 59.9137 23.3324 60.526 24.5557L61.4328 26.3706Z" fill="#6146EE"/>
    <path d="M17.1019 32.0144L4.72688 31.7202L0.447192 27.4405C0.447192 27.4405 -0.0195613 22.1979 0.447192 17.8112C0.511387 17.2013 0.610355 16.4925 0.734733 15.7222L12.2163 21.021L17.1019 32.0144Z" fill="#6146EE"/>
    <path d="M42.9298 19.1955L38.9645 23.1609C38.9645 23.1609 33.6148 22.091 27.1953 18.8812C20.7758 15.6715 16.4961 9.25192 16.4961 9.25192L23.0681 2.67993L25.7335 9.34287L26.1254 10.3218C26.1254 10.3218 26.7767 10.7231 27.852 11.361C28.3909 11.682 29.0356 12.0618 29.7591 12.4817C30.4198 12.8656 31.1473 13.2815 31.9163 13.7162C32.5396 14.0679 33.1922 14.4317 33.8623 14.7981C36.9075 16.4645 40.2992 18.1938 42.9298 19.1955Z" fill="#6146EE"/>
    <path d="M63 29.3333C58.6552 31.5556 49.9655 36 36.931 36C26.7743 36 10.0223 35.3254 3.1204 35.0278C2.28079 34.9913 1.4874 34.6245 0.905945 34.0038C0.324485 33.3832 -9.10139e-05 32.5567 1.91437e-08 31.6971V27.1111C1.91437e-08 27.1111 23.8966 29.3333 36.931 29.3333C49.9655 29.3333 57.569 28.2222 61.9138 26L63 29.3333Z" fill="#CACAC9"/>
    <path d="M26 9.58773C23.5716 11.4914 18.5712 15 14.6988 15C13.9923 14.9924 13.2873 14.9322 12.5892 14.8197C9.02358 14.2718 4.59449 12.6036 2 11.5354C2.2006 10.5334 2.40917 9.53543 2.61508 8.59117C3.31385 5.38675 3.97011 2.81414 4.07107 2.88709L19.5862 0.0501891C20.3074 -0.0815648 21.0503 0.0479324 21.6902 0.416915C22.3301 0.785897 22.8279 1.37187 23.1 2.07635L23.262 2.49617L24.3102 5.21194L26 9.58773Z" fill="#4E4E4E"/>
    <path d="M24 4.64448L12.4419 14C8.92593 13.4665 4.55841 11.8421 2 10.802C2.19781 9.8262 2.40348 8.85446 2.60653 7.93499L22.9664 2L24 4.64448Z" fill="#6146EE"/>
    <path d="M46 20.0374L37.3446 30L30 29.8671C31.6365 28.0018 34.5301 24.4792 35.2873 22.0836C35.928 20.0586 36.1853 17.6291 36.2885 16C37.7789 16.8131 39.2706 17.5838 40.647 18.2216C41.2863 18.52 41.9002 18.7901 42.4778 19.022C42.5877 19.0659 42.6949 19.1097 42.8021 19.1493C43.4968 19.4297 44.2105 19.6542 44.9372 19.821C45.2789 19.8931 45.6341 19.9653 46 20.0374Z" fill="#6146EE"/>
    <path d="M30 12.1214L26.724 15L25 13.4851L27.8282 11C28.442 11.3212 29.1761 11.7012 30 12.1214Z" fill="#4E4E4E"/>
    <path d="M34 14.8582L31.437 17L30 15.7992L32.153 14C32.7445 14.279 33.364 14.5675 34 14.8582Z" fill="#4E4E4E"/>
    <path d="M38 16.8582L35.437 19L34 17.7992L36.153 16C36.7445 16.279 37.364 16.5675 38 16.8582Z" fill="#4E4E4E"/>
    <path d="M43 19.0509L40.523 22L39 20.1866L40.8365 18C41.4783 18.338 42.0945 18.644 42.6744 18.9067C42.7847 18.9563 42.8924 19.006 43 19.0509Z" fill="#4E4E4E"/>
  </symbol>
  <symbol id="about-delivery" viewBox="0 0 45 51">
    <path d="M23.3654 6.9231H30.2885V8.65386H23.3654C23.1359 8.65386 22.9158 8.56269 22.7535 8.4004C22.5912 8.23811 22.5 8.01799 22.5 7.78848C22.5 7.55897 22.5912 7.33885 22.7535 7.17656C22.9158 7.01427 23.1359 6.9231 23.3654 6.9231Z" fill="#6146EE"/>
    <path d="M0 15.5769H24.2308V36.3461H0V15.5769Z" fill="#B38B63"/>
    <path d="M22.5 15.5769V27.6923C22.5 29.0694 21.953 30.3901 20.9792 31.3638C20.0055 32.3376 18.6848 32.8846 17.3077 32.8846H0V36.3461H24.2308V15.5769H22.5Z" fill="#A97C50"/>
    <path d="M29.4231 8.65381V13.8461C29.4231 15.2232 29.9701 16.5439 30.9439 17.5176C31.9176 18.4914 33.2383 19.0384 34.6154 19.0384V22.5H39.8077V19.0384C40.3278 18.7784 40.7652 18.3787 41.0709 17.8841C41.3766 17.3895 41.5385 16.8195 41.5385 16.238V8.65381H29.4231Z" fill="#FFBCAB"/>
    <path d="M39.8078 22.5H32.8847C31.5076 22.5 30.1869 23.047 29.2132 24.0208C28.2394 24.9945 27.6924 26.3152 27.6924 27.6923V46.7308H45.0001V27.6923C45.0001 26.3152 44.453 24.9945 43.4793 24.0208C42.5055 23.047 41.1849 22.5 39.8078 22.5Z" fill="#6146EE"/>
    <path d="M39.8077 34.6153V29.423C39.8077 28.5049 39.4431 27.6245 38.7939 26.9753C38.1447 26.3261 37.2643 25.9614 36.3462 25.9614C35.4282 25.9614 34.5477 26.3261 33.8985 26.9753C33.2494 27.6245 32.8847 28.5049 32.8847 29.423V32.8845C32.8847 33.3435 32.7023 33.7838 32.3777 34.1083C32.0532 34.4329 31.6129 34.6153 31.1539 34.6153H20.7693V41.5383H32.8847C34.7208 41.5383 36.4817 40.809 37.78 39.5106C39.0784 38.2123 39.8077 36.4514 39.8077 34.6153Z" fill="#2A2826"/>
    <path d="M20.7692 33.75H15.5769V36.3462V39.8077V42.4038H20.7692V41.5385V34.6154V33.75Z" fill="#6146EE"/>
    <path d="M42.4038 8.65385V6.92308C42.4038 5.08696 41.6744 3.32605 40.376 2.02772C39.0777 0.729394 37.3168 0 35.4807 0C33.6446 0 31.8837 0.729394 30.5853 2.02772C29.287 3.32605 28.5576 5.08696 28.5576 6.92308V8.65385H42.4038Z" fill="#6146EE"/>
    <path d="M12.1154 22.5L14.7116 24.2308V15.5769H9.51929V24.2308L12.1154 22.5Z" fill="black"/>
    <path d="M8.65381 36.3462C8.65381 37.2642 9.01851 38.1447 9.66767 38.7939C10.3168 39.443 11.1973 39.8077 12.1153 39.8077H15.5769V36.3462H8.65381Z" fill="#FFBCAB"/>
    <path d="M27.6924 46.7307H45.0001V50.1923H27.6924V46.7307Z" fill="#6D6E71"/>
  </symbol>
  <symbol id="about-surface" viewBox="0 0 42 50">
    <path d="M39.7814 32.9357C38.4557 36.5284 36.4509 39.6523 33.8218 42.2197C30.8292 45.1419 26.9106 47.4639 22.1747 49.1203C22.0193 49.1745 21.8571 49.2189 21.6942 49.2517C21.479 49.2942 21.26 49.3171 21.0429 49.3201H21.0003C20.7689 49.3201 20.5364 49.2968 20.3057 49.2517C20.1428 49.2189 19.9829 49.1745 19.8282 49.1215C15.0867 47.4677 11.1632 45.1468 8.16759 42.2246C5.53737 39.6572 3.53291 36.5352 2.20914 32.9424C-0.197938 26.4102 -0.0609715 19.2141 0.0492795 13.4314L0.0511608 13.3426C0.0733616 12.8651 0.0876603 12.3635 0.0955623 11.8096C0.135825 9.09022 2.29795 6.84042 5.01772 6.68878C10.6883 6.37233 15.075 4.5229 18.8232 0.869564L18.8559 0.839461C19.4783 0.26864 20.2625 -0.0113149 21.0429 0.000349952C21.7954 0.0101333 22.545 0.289712 23.1452 0.839461L23.1771 0.869564C26.9261 4.5229 31.3128 6.37233 36.9833 6.68878C39.7031 6.84042 41.8652 9.09022 41.9055 11.8096C41.9134 12.3673 41.9277 12.8681 41.9499 13.3426L41.951 13.3802C42.0609 19.1739 42.1971 26.3842 39.7814 32.9357Z" fill="#6146EE"/>
    <path d="M39.7816 32.9355C38.456 36.5283 36.4511 39.6522 33.822 42.2196C30.8295 45.1418 26.9108 47.4638 22.175 49.1202C22.0195 49.1744 21.8574 49.2188 21.6944 49.2516C21.4792 49.2941 21.2602 49.317 21.0431 49.32V0.000244141C21.7957 0.0100275 22.5452 0.289606 23.1454 0.839355L23.1774 0.869458C26.9263 4.52279 31.313 6.37222 36.9836 6.68868C39.7033 6.84032 41.8655 9.09011 41.9057 11.8095C41.9136 12.3672 41.9279 12.868 41.9501 13.3425L41.9513 13.3801C42.0611 19.1737 42.1973 26.3841 39.7816 32.9355Z" fill="#6146EE"/>
    <path d="M33.2912 24.6601C33.2912 31.423 27.8001 36.928 21.0428 36.9521H20.9996C14.2223 36.9521 8.70752 31.4377 8.70752 24.6601C8.70752 17.8828 14.2223 12.3684 20.9996 12.3684H21.0428C27.8001 12.3925 33.2912 17.8975 33.2912 24.6601Z" fill="white"/>
    <path d="M33.2915 24.6601C33.2915 31.423 27.8004 36.928 21.0431 36.9521V12.3684C27.8004 12.3925 33.2915 17.8975 33.2915 24.6601Z" fill="white"/>
    <path d="M26.5787 22.8901L21.0428 28.4267L19.8466 29.6229C19.564 29.9055 19.1934 30.0466 18.8231 30.0466C18.4525 30.0466 18.0822 29.9055 17.7992 29.6229L15.2273 27.0499C14.6622 26.4847 14.6622 25.5692 15.2273 25.0037C15.7918 24.4385 16.7084 24.4385 17.2736 25.0037L18.8231 26.5532L24.5324 20.8438C25.0976 20.2783 26.0142 20.2783 26.5787 20.8438C27.1439 21.409 27.1439 22.3256 26.5787 22.8901Z" fill="black"/>
    <path d="M26.579 22.8901L21.0431 28.4267V24.3331L24.5327 20.8438C25.0979 20.2783 26.0145 20.2783 26.579 20.8438C27.1441 21.409 27.1441 22.3256 26.579 22.8901Z" fill="black"/>
  </symbol>
  <symbol id="about-chemistry" viewBox="0 0 34 49">
    <path d="M33.6536 41.8721L23.5719 16.9614C23.0129 15.5794 22.7292 14.1214 22.7292 12.6277V6.04304C22.7292 5.33398 23.0016 4.66733 23.4963 4.16586C24.0994 3.55451 24.4318 2.74147 24.4318 1.87681V0.943937C24.4318 0.422559 24.0146 0 23.5007 0H10.4997C9.98536 0 9.56852 0.422559 9.56852 0.943937V1.87681C9.56852 2.74147 9.90061 3.55451 10.5037 4.16586C10.9984 4.66733 11.2708 5.33398 11.2708 6.04341V12.6277C11.2708 14.1214 10.9875 15.5794 10.428 16.9614L7.65782 23.8064C7.65673 23.809 7.65564 23.8116 7.65455 23.8141L0.34639 41.8721C-0.238859 43.3186 -0.075542 44.9576 0.783599 46.2559C1.64274 47.5545 3.07622 48.3296 4.61846 48.3296H29.3815C30.9238 48.3296 32.3576 47.5545 33.2167 46.2559C34.0755 44.9572 34.2388 43.3186 33.6536 41.8721ZM12.151 17.6778C12.8029 16.0676 13.1331 14.3685 13.1331 12.6277V6.04304C13.1331 4.82994 12.6672 3.6891 11.8208 2.83107C11.572 2.57887 11.4338 2.24406 11.4308 1.88787H22.5695C22.5666 2.24406 22.4284 2.5785 22.1792 2.83107C21.3332 3.6891 20.8669 4.82957 20.8669 6.04304V12.6274C20.8669 14.3681 21.1975 16.0672 21.8489 17.6774L24.0972 23.2327H9.9028L12.151 17.6778ZM31.6698 45.2043C31.1496 45.9908 30.3156 46.4417 29.3815 46.4417H4.61846C3.68475 46.4417 2.8507 45.9908 2.3302 45.2043C1.93773 44.611 1.78787 43.923 1.88972 43.2445H3.42395C3.93791 43.2445 4.35511 42.8216 4.35511 42.3006C4.35511 41.7792 3.93791 41.3566 3.42395 41.3566H2.56845L3.63783 38.7136H5.20843C5.72275 38.7136 6.1396 38.2907 6.1396 37.7697C6.1396 37.2483 5.72275 36.8257 5.20843 36.8257H4.40203L5.47141 34.1827H7.0864C7.60072 34.1827 8.01756 33.7598 8.01756 33.2388C8.01756 32.7174 7.60072 32.2948 7.0864 32.2948H6.23562L7.30537 29.6518H8.964C9.47832 29.6518 9.89516 29.2289 9.89516 28.7079C9.89516 28.1865 9.47832 27.7639 8.964 27.7639H8.06921L9.13895 25.1209H24.861L31.9306 42.5889C32.2849 43.4646 32.1899 44.4181 31.6698 45.2043Z" fill="#6146EE"/>
    <path d="M28.9203 42.1602C28.7115 41.6691 28.1296 41.4343 27.6197 41.635C27.1103 41.8361 26.866 42.3966 27.0744 42.8877L27.0799 42.8997C27.238 43.2715 27.61 43.4966 28.003 43.4966C28.1288 43.4966 28.2566 43.4737 28.3804 43.4249C28.8899 43.2238 29.1341 42.6629 28.9254 42.1722L28.9203 42.1602Z" fill="black"/>
    <path d="M27.9327 38.3874L24.7247 30.5237C24.5371 30.0634 24.014 29.8431 23.556 30.032C23.0983 30.2207 22.8796 30.7471 23.0672 31.2074L26.2752 39.0712C26.4172 39.4199 26.7514 39.6304 27.1045 39.6304C27.2175 39.6304 27.3326 39.6089 27.4439 39.5628C27.9016 39.3742 28.1206 38.8477 27.9327 38.3874Z" fill="black"/>
  </symbol>
  <symbol id="long-right-arrow" viewBox="0 0 159 24">
    <path d="M158.061 13.0607C158.646 12.4749 158.646 11.5251 158.061 10.9393L148.515 1.3934C147.929 0.807611 146.979 0.807611 146.393 1.3934C145.808 1.97919 145.808 2.92893 146.393 3.51472L154.879 12L146.393 20.4853C145.808 21.0711 145.808 22.0208 146.393 22.6066C146.979 23.1924 147.929 23.1924 148.515 22.6066L158.061 13.0607ZM0 13.5H157V10.5H0V13.5Z" fill="#6146EE"/>
  </symbol>
  <symbol id="instagram-arrow" viewBox="0 0 50 24">
    <path d="M49.0607 13.0607C49.6464 12.4749 49.6464 11.5251 49.0607 10.9393L39.5147 1.3934C38.9289 0.807611 37.9792 0.807611 37.3934 1.3934C36.8076 1.97919 36.8076 2.92893 37.3934 3.51472L45.8787 12L37.3934 20.4853C36.8076 21.0711 36.8076 22.0208 37.3934 22.6066C37.9792 23.1924 38.9289 23.1924 39.5147 22.6066L49.0607 13.0607ZM0 13.5H48V10.5H0V13.5Z" fill="white"/>
  </symbol>
  <symbol id="white-logo" viewBox="0 0 124 17">
    <path d="M8.39606 8.81133C9.07007 8.63874 9.61044 8.27506 10.023 7.71412C10.4355 7.15319 10.6389 6.45665 10.6389 5.62449C10.6389 4.44715 10.2612 3.55335 9.51166 2.93078C8.75631 2.3082 7.71624 2 6.37984 2H0V16.0233H6.53092C7.94866 16.0233 9.04102 15.6905 9.79638 15.0248C10.5575 14.359 10.9352 13.4159 10.9352 12.2016C10.9352 11.3818 10.7086 10.6667 10.2554 10.0442C9.80218 9.41541 9.18047 9.00858 8.39606 8.81133ZM3.678 5.10671H5.50247C6.43795 5.10671 6.90278 5.53203 6.90278 6.37651C6.90278 7.19634 6.44376 7.60317 5.5199 7.60317H3.67219V5.10671H3.678ZM5.74651 12.892H3.67219V10.3154H5.74651C6.70523 10.3154 7.18168 10.753 7.18168 11.6222C7.1875 12.4666 6.70523 12.892 5.74651 12.892Z" fill="white"/>
    <path d="M22.3237 2.91845C21.2953 2.30204 20.1622 2 18.9188 2C17.687 2 16.554 2.30821 15.5197 2.91845C14.4854 3.53486 13.672 4.38551 13.0735 5.48272C12.475 6.57993 12.1787 7.81275 12.1787 9.18735C12.1787 10.5619 12.475 11.7948 13.0735 12.892C13.672 13.9892 14.4854 14.8398 15.5197 15.4562C16.554 16.0727 17.687 16.3747 18.9188 16.3747C20.1506 16.3747 21.2778 16.0665 22.3063 15.4562C23.3347 14.8398 24.1424 13.9892 24.7408 12.892C25.3393 11.7948 25.6356 10.5619 25.6356 9.18735C25.6356 7.81275 25.3393 6.57993 24.7466 5.48272C24.1598 4.38551 23.3463 3.53486 22.3237 2.91845ZM21.0977 11.7824C20.5631 12.4297 19.8368 12.7502 18.913 12.7502C17.9775 12.7502 17.2454 12.4297 16.7108 11.7824C16.1763 11.1352 15.909 10.2722 15.909 9.18735C15.909 8.07781 16.1763 7.2025 16.7108 6.56144C17.2454 5.92037 17.9775 5.59984 18.913 5.59984C19.8485 5.59984 20.5748 5.92037 21.1093 6.56144C21.6381 7.2025 21.9053 8.07781 21.9053 9.18735C21.9053 10.2722 21.6323 11.1352 21.0977 11.7824Z" fill="white"/>
    <path d="M64.7339 5.606C65.3208 5.606 65.8379 5.7601 66.2853 6.07447C66.7327 6.38268 67.0639 6.81416 67.2731 7.36893H71.137C70.9395 6.30254 70.556 5.35943 69.9982 4.54577C69.4404 3.73211 68.7141 3.10954 67.8251 2.66572C66.9361 2.22191 65.9251 2 64.792 2C63.4847 2 62.3459 2.30204 61.3639 2.89996C60.3877 3.49788 59.6324 4.34236 59.1036 5.42724C58.5749 6.51212 58.3076 7.74494 58.3076 9.13187C58.3076 10.5188 58.5691 11.7516 59.1036 12.8365C59.6324 13.9214 60.3877 14.7597 61.3639 15.3638C62.34 15.9617 63.4847 16.2637 64.792 16.2637C66.4945 16.2637 67.9064 15.7768 69.022 14.809C70.1376 13.8412 70.8407 12.5344 71.1428 10.8948H67.2789C67.0697 11.4496 66.7385 11.8872 66.2911 12.2016C65.8437 12.516 65.3266 12.6762 64.7397 12.6762C63.9321 12.6762 63.2755 12.3557 62.7816 11.7085C62.2819 11.0612 62.0321 10.2044 62.0321 9.13187C62.0321 8.05931 62.2819 7.20866 62.7816 6.5676C63.2697 5.92653 63.9263 5.606 64.7339 5.606Z" fill="white"/>
    <path d="M77.0813 2H73.4033V16.0172H83.3043L83.2694 12.9105H77.0465L77.0813 2Z" fill="white"/>
    <path d="M85.2681 16.0172H93.7803V12.9105H88.946V10.377H93.2225V7.42441H88.946V5.10671H93.7803V2H85.2681V16.0172Z" fill="white"/>
    <path d="M100.712 2L95.8779 15.9617H99.7419L100.468 13.6255H105.151L105.878 15.9617H109.759L104.942 2H100.712ZM101.386 10.6975L102.821 6.14227L104.239 10.6975H101.386Z" fill="white"/>
    <path d="M120.322 2V9.92088L115.47 2H111.792V16.0049H115.47V8.18261L120.322 16.0049H124V2H120.322Z" fill="white"/>
    <path d="M54.6124 2.17118C53.6188 1.38834 52.3522 1 50.8182 1C49.8072 1 48.9356 1.18492 48.2151 1.55477C47.4888 1.92462 46.9427 2.43007 46.565 3.06497C46.1873 3.69988 46.013 4.40875 46.013 5.19159C46.013 5.30254 46.0072 5.40733 46.013 5.51212V5.51829C46.0246 6.60933 45.9839 11.3002 45.9839 11.405C45.9839 11.7255 45.9026 11.9598 45.7399 12.12C45.5772 12.2803 45.3506 12.3604 45.0659 12.3604C44.7289 12.3604 44.4558 12.2557 44.2524 12.0399C44.1072 11.8858 43.9968 11.6824 43.9329 11.4112C43.8864 11.2201 43.869 11.0228 43.869 10.8256V9.29688H39.912V11.0721C39.9992 12.4529 40.4989 13.5193 41.3995 14.2836C42.3059 15.048 43.5203 15.424 45.0427 15.424C45.9781 15.424 46.8148 15.2637 47.5528 14.937C48.2907 14.6103 48.8717 14.1357 49.2959 13.507C49.72 12.8782 49.9292 12.1262 49.9292 11.2509C49.9292 11.1893 49.9292 11.1338 49.9292 11.0721V11.0537C49.9002 9.93179 49.9292 5.20392 49.9292 5.05598C49.9292 4.73545 50.028 4.49504 50.2081 4.32245C50.3882 4.14985 50.6439 4.06356 50.9693 4.06356C51.3295 4.06356 51.6375 4.18068 51.8873 4.42108C52.1372 4.66148 52.2824 5.02516 52.3173 5.51212L52.387 9.29688H56.2335V5.51212C56.1464 4.06972 55.606 2.95402 54.6124 2.17118Z" fill="white"/>
    <path d="M29.1567 14.2528C30.1503 15.0357 31.417 15.424 32.9509 15.424C33.9619 15.424 34.8335 15.2391 35.554 14.8692C36.2803 14.4994 36.8265 13.9939 37.2041 13.359C37.5818 12.7241 37.7561 12.0153 37.7561 11.2324C37.7561 11.1215 37.7619 11.0167 37.7561 10.9119V10.9057C37.7445 9.81467 37.7852 5.12378 37.7852 5.01899C37.7852 4.69846 37.8665 4.46423 38.0292 4.30396C38.1919 4.14369 38.4185 4.06356 38.7032 4.06356C39.0402 4.06356 39.3133 4.16835 39.5167 4.38409C39.662 4.53819 39.7723 4.74161 39.8363 5.01283C39.8827 5.20392 39.9002 5.40117 39.9002 5.59842V7.13328H43.8571V5.35186C43.7699 3.9711 43.2702 2.90471 42.3696 2.14036C41.4632 1.37601 40.2488 1 38.7265 1C37.791 1 36.9543 1.16026 36.2164 1.48696C35.4784 1.81366 34.8974 2.2883 34.4732 2.91703C34.0491 3.54577 33.8399 4.29779 33.8399 5.1731C33.8399 5.23474 33.8399 5.29022 33.8399 5.35186V5.37035C33.869 6.49221 33.8399 11.2201 33.8399 11.368C33.8399 11.6886 33.7411 11.929 33.561 12.1016C33.3809 12.2741 33.1252 12.3604 32.7998 12.3604C32.4396 12.3604 32.1316 12.2433 31.8818 12.0029C31.6319 11.7625 31.4867 11.3988 31.4518 10.9119L31.3821 7.12712H27.5356V10.9119C27.6227 12.3543 28.1631 13.47 29.1567 14.2528Z" fill="white"/>
    <path d="M55.0017 12H53.6479V15.9574H55.0017V12Z" fill="white"/>
    <path d="M30.1213 0H28.7675V3.96352H30.1213V0Z" fill="white"/>
  </symbol>
  <symbol id="arrow-down" viewBox="0 0 21 10">
    <path d="M1 1L10.5 8L20 1" stroke="#6146EE" stroke-width="2"/>
  </symbol>
  <symbol id="slider-left-arrow" viewBox="0 0 42 8">
    <path d="M0.646446 3.64644C0.451183 3.84171 0.451183 4.15829 0.646446 4.35355L3.82843 7.53553C4.02369 7.73079 4.34027 7.73079 4.53553 7.53553C4.7308 7.34027 4.7308 7.02369 4.53553 6.82842L1.70711 4L4.53553 1.17157C4.7308 0.976307 4.7308 0.659725 4.53553 0.464463C4.34027 0.269201 4.02369 0.269201 3.82843 0.464463L0.646446 3.64644ZM42 3.5L1 3.5L1 4.5L42 4.5L42 3.5Z" fill="#686868" fill-opacity="0.52"/>
  </symbol>
  <symbol id="slider-right-arrow" viewBox="0 0 42 8">
    <path d="M41.3536 4.35355C41.5488 4.15829 41.5488 3.84171 41.3536 3.64645L38.1716 0.464466C37.9763 0.269204 37.6597 0.269204 37.4645 0.464466C37.2692 0.659728 37.2692 0.976311 37.4645 1.17157L40.2929 4L37.4645 6.82843C37.2692 7.02369 37.2692 7.34027 37.4645 7.53553C37.6597 7.7308 37.9763 7.7308 38.1716 7.53553L41.3536 4.35355ZM0 4.5H41V3.5H0L0 4.5Z" fill="#686868" fill-opacity="0.52"/>
  </symbol>
  <symbol id="result-purple-left-arrow" viewBox="0 0 10 18">
    <path d="M9 1L1 9L9 17" stroke="#6146EE"/>
  </symbol>
  <symbol id="result-purple-right-arrow" viewBox="0 0 10 18">
    <path d="M1 1L9 9L1 17" stroke="#6146EE"/>
  </symbol>
</svg>