<svg display="none" xmlns="http://www.w3.org/2000/svg" xmlns:xlink="http://www.w3.org/1999/xlink">
  <symbol id="logo" viewBox="0 0 280 33">
    <path d="M18.9588 16.0733C20.4808 15.6788 21.701 14.8476 22.6325 13.5656C23.5641 12.2835 24.0233 10.6916 24.0233 8.78964C24.0233 6.09878 23.1705 4.05598 21.4779 2.63306C19.7723 1.21015 17.4238 0.505737 14.4061 0.505737H0V32.5566H14.7472C17.9486 32.5566 20.4152 31.7958 22.1208 30.2743C23.8396 28.7527 24.6924 26.5972 24.6924 23.8218C24.6924 21.9481 24.1807 20.3139 23.1573 18.8909C22.134 17.4539 20.7301 16.5241 18.9588 16.0733ZM8.30516 7.60623H12.4249C14.5373 7.60623 15.5869 8.57832 15.5869 10.5084C15.5869 12.3822 14.5504 13.312 12.4643 13.312H8.29204V7.60623H8.30516ZM12.976 25.3997H8.29204V19.5108H12.976C15.1408 19.5108 16.2167 20.5111 16.2167 22.4975C16.2298 24.4276 15.1408 25.3997 12.976 25.3997Z" fill="black"/>
    <path d="M50.4083 2.19718C48.086 0.788352 45.5275 0.0980225 42.7198 0.0980225C39.9383 0.0980225 37.3798 0.80244 35.0444 2.19718C32.709 3.60601 30.8722 5.55019 29.5208 8.0579C28.1694 10.5656 27.5002 13.3833 27.5002 16.525C27.5002 19.6667 28.1694 22.4843 29.5208 24.992C30.8722 27.4997 32.709 29.4439 35.0444 30.8527C37.3798 32.2616 39.9383 32.9519 42.7198 32.9519C45.5013 32.9519 48.0466 32.2475 50.3689 30.8527C52.6912 29.4439 54.5149 27.4997 55.8663 24.992C57.2177 22.4843 57.8868 19.6667 57.8868 16.525C57.8868 13.3833 57.2177 10.5656 55.8794 8.0579C54.5543 5.55019 52.7174 3.60601 50.4083 2.19718ZM47.6399 22.4561C46.4328 23.9354 44.7928 24.668 42.7067 24.668C40.5943 24.668 38.9411 23.9354 37.7341 22.4561C36.527 20.9769 35.9235 19.0045 35.9235 16.525C35.9235 13.9891 36.527 11.9885 37.7341 10.5234C38.9411 9.05817 40.5943 8.32558 42.7067 8.32558C44.819 8.32558 46.4591 9.05817 47.6661 10.5234C48.8601 11.9885 49.4636 13.9891 49.4636 16.525C49.4636 19.0045 48.847 20.9769 47.6399 22.4561Z" fill="black"/>
    <path d="M146.174 8.46674C147.499 8.46674 148.667 8.81894 149.677 9.53745C150.687 10.2419 151.435 11.228 151.907 12.496H160.632C160.186 10.0587 159.32 7.90321 158.061 6.04355C156.801 4.1839 155.161 2.76099 153.154 1.74663C151.146 0.732274 148.864 0.225098 146.305 0.225098C143.353 0.225098 140.781 0.91542 138.564 2.28198C136.36 3.64855 134.654 5.57864 133.46 8.05818C132.266 10.5377 131.663 13.3554 131.663 16.5252C131.663 19.6951 132.253 22.5128 133.46 24.9923C134.654 27.4718 136.36 29.3878 138.564 30.7685C140.768 32.1351 143.353 32.8254 146.305 32.8254C150.149 32.8254 153.338 31.7124 155.857 29.5005C158.376 27.2887 159.963 24.302 160.646 20.5545H151.921C151.448 21.8224 150.7 22.8227 149.69 23.5412C148.68 24.2597 147.512 24.626 146.187 24.626C144.363 24.626 142.881 23.8934 141.765 22.4141C140.637 20.9349 140.073 18.9766 140.073 16.5252C140.073 14.0739 140.637 12.1297 141.765 10.6645C142.868 9.19933 144.35 8.46674 146.174 8.46674Z" fill="black"/>
    <path d="M174.054 0.505737H165.749V32.5425H188.106L188.027 25.442H173.975L174.054 0.505737Z" fill="black"/>
    <path d="M192.541 32.5425H211.762V25.442H200.846V19.6517H210.502V12.9034H200.846V7.60623H211.762V0.505737H192.541V32.5425Z" fill="black"/>
    <path d="M227.415 0.56189L216.499 32.4718H225.224L226.864 27.1324H237.439L239.079 32.4718H247.843L236.967 0.56189H227.415ZM228.937 20.4405L232.178 10.0292L235.379 20.4405H228.937Z" fill="black"/>
    <path d="M271.695 0.519775V18.6232L260.739 0.519775H252.434V32.5284H260.739V14.6503L271.695 32.5284H280V0.519775H271.695Z" fill="black"/>
    <path d="M123.318 2.67677C121.074 0.887562 118.214 0 114.75 0C112.467 0 110.499 0.422648 108.872 1.26795C107.232 2.11324 105.999 3.26848 105.146 4.71957C104.293 6.17067 103.9 7.79082 103.9 9.58003C103.9 9.83362 103.887 10.0731 103.9 10.3126V10.3267C103.926 12.8203 103.834 23.5415 103.834 23.781C103.834 24.5136 103.651 25.049 103.283 25.4153C102.916 25.7816 102.404 25.9647 101.761 25.9647C101 25.9647 100.384 25.7252 99.9244 25.2321C99.5964 24.8799 99.3471 24.415 99.2028 23.7951C99.0978 23.3584 99.0585 22.9075 99.0585 22.4567V18.9628H90.1235V23.0202C90.3203 26.176 91.4487 28.6133 93.4823 30.3602C95.5291 32.1072 98.2712 32.9666 101.709 32.9666C103.821 32.9666 105.71 32.6003 107.377 31.8536C109.043 31.1069 110.355 30.0221 111.313 28.5851C112.271 27.1481 112.743 25.4293 112.743 23.4288C112.743 23.2879 112.743 23.1611 112.743 23.0202V22.978C112.677 20.4139 112.743 9.60821 112.743 9.27009C112.743 8.5375 112.966 7.98805 113.373 7.59358C113.779 7.19911 114.357 7.00187 115.091 7.00187C115.905 7.00187 116.6 7.26955 117.164 7.819C117.729 8.36844 118.057 9.19964 118.135 10.3126L118.293 18.9628H126.978V10.3126C126.782 7.01596 125.561 4.46599 123.318 2.67677Z" fill="#6146EE"/>
    <path d="M65.8376 30.2898C68.0811 32.079 70.9414 32.9666 74.4051 32.9666C76.6881 32.9666 78.6561 32.5439 80.283 31.6986C81.9231 30.8533 83.1564 29.6981 84.0092 28.247C84.862 26.7959 85.2556 25.1758 85.2556 23.3865C85.2556 23.133 85.2688 22.8935 85.2556 22.654V22.6399C85.2294 20.1462 85.3212 9.42505 85.3212 9.18555C85.3212 8.45296 85.5049 7.91761 85.8723 7.55132C86.2397 7.18502 86.7514 7.00187 87.3943 7.00187C88.1552 7.00187 88.7719 7.24137 89.2311 7.73446C89.5591 8.08667 89.8084 8.55158 89.9527 9.17147C90.0577 9.6082 90.097 10.059 90.097 10.5099V14.0178H99.032V9.94632C98.8352 6.79055 97.7068 4.35328 95.6732 2.60633C93.6264 0.859385 90.8843 0 87.4467 0C85.3344 0 83.445 0.36629 81.7788 1.11297C80.1125 1.85965 78.8004 2.94445 77.8427 4.38145C76.8849 5.81846 76.4126 7.53722 76.4126 9.53776C76.4126 9.67864 76.4126 9.80544 76.4126 9.94632V9.98859C76.4782 12.5527 76.4126 23.3584 76.4126 23.6965C76.4126 24.4291 76.1895 24.9785 75.7828 25.373C75.376 25.7675 74.7987 25.9647 74.064 25.9647C73.2506 25.9647 72.5552 25.697 71.991 25.1476C71.4268 24.5981 71.0988 23.7669 71.0201 22.654L70.8627 14.0037H62.177V22.654C62.3738 25.9506 63.594 28.5006 65.8376 30.2898Z" fill="#6146EE"/>
    <path d="M124.197 23.936H121.14V32.9807H124.197V23.936Z" fill="#6146EE"/>
    <path d="M68.0157 0H64.9587V9.05878H68.0157V0Z" fill="#6146EE"/>
  </symbol>
  <symbol id="user" viewBox="0 0 12 16">
    <path d="M10.2622 6.97656H8.71011C7.91052 7.78206 6.80311 8.28184 5.5812 8.28184C4.35926 8.28184 3.25185 7.78206 2.45232 6.97656H0.900193C0.403116 6.97656 0 7.37968 0 7.87676V14.8983C0 15.3953 0.403116 15.7985 0.900193 15.7985H10.2622C10.7593 15.7985 11.1624 15.3953 11.1624 14.8983V7.87676C11.1624 7.37968 10.7593 6.97656 10.2622 6.97656Z" fill="#6146EE"/>
    <path d="M3.27772 6.9765C3.92189 7.45504 4.71712 7.74166 5.58113 7.74166C6.44514 7.74166 7.2404 7.45504 7.88454 6.9765C8.83389 6.27108 9.45196 5.14461 9.45196 3.87083C9.45199 1.73305 7.71891 0 5.58116 0C3.44338 0 1.71033 1.73305 1.71033 3.87083C1.71033 5.14461 2.3284 6.27111 3.27772 6.9765Z" fill="#6146EE"/>
  </symbol>
  <symbol id="whatsapp" viewBox="0 0 50 50">
    <path fill="none" stroke="#fff" stroke-miterlimit="10" stroke-width="1" d="M19.102,15.022c-0.479-1.137-0.966-0.983-1.329-1.001C17.429,14.005,17.036,14,16.642,14c-0.394,0-1.033,0.146-1.575,0.73S13,16.724,13,19.594s2.116,5.641,2.411,6.031c0.296,0.389,4.164,6.278,10.087,8.804c1.409,0.6,2.509,0.959,3.366,1.228c1.414,0.444,2.702,0.381,3.72,0.231c1.134-0.167,3.494-1.411,3.986-2.772c0.492-1.362,0.492-2.529,0.344-2.772c-0.148-0.243-0.542-0.389-1.132-0.681c-0.59-0.292-3.494-1.703-4.036-1.896c-0.542-0.195-0.935-0.292-1.329,0.292c-0.394,0.584-1.525,1.896-1.869,2.286c-0.344,0.389-0.689,0.438-1.279,0.146c-0.59-0.292-2.494-0.907-4.748-2.894c-1.756-1.546-2.941-3.455-3.285-4.039s-0.037-0.899,0.259-1.19c0.266-0.262,0.59-0.681,0.886-1.022c0.296-0.341,0.394-0.584,0.59-0.973s0.098-0.73-0.05-1.022C20.775,19.059,19.594,16.19,19.102,15.022z"/>
    <path fill="none" stroke="#fff" stroke-linejoin="round" stroke-miterlimit="10" stroke-width="1" d="M25,3C12.85,3,3,12.85,3,25c0,4.072,1.111,7.884,3.04,11.155L3,47l11.274-2.793C17.448,45.983,21.104,47,25,47c12.15,0,22-9.85,22-22S37.15,3,25,3z"/>
  </symbol>
  <symbol id="instagram" viewBox="0 0 24 24">
    <path d="M11.8453 5.6084C8.53177 5.6084 5.78625 8.29469 5.78625 11.6408C5.78625 14.9869 8.48444 17.6732 11.8453 17.6732C15.2062 17.6732 17.9044 14.9397 17.9044 11.6408C17.9044 8.34182 15.1589 5.6084 11.8453 5.6084ZM11.8453 15.5053C9.71519 15.5053 7.96374 13.7615 7.96374 11.6408C7.96374 9.52002 9.71519 7.77629 11.8453 7.77629C13.9755 7.77629 15.7269 9.52002 15.7269 11.6408C15.7269 13.7615 13.9755 15.5053 11.8453 15.5053Z" fill="white"/>
    <path d="M18.1405 6.83303C18.8986 6.83303 19.5132 6.22114 19.5132 5.46632C19.5132 4.71151 18.8986 4.09961 18.1405 4.09961C17.3823 4.09961 16.7677 4.71151 16.7677 5.46632C16.7677 6.22114 17.3823 6.83303 18.1405 6.83303Z" fill="white"/>
    <path d="M21.6917 1.93225C20.4609 0.659792 18.7095 0 16.7213 0H6.97C2.85172 0 0.106201 2.73342 0.106201 6.83356V16.4948C0.106201 18.5213 0.768913 20.265 2.09434 21.5375C3.37242 22.7628 5.07654 23.3755 7.01734 23.3755H16.674C18.7095 23.3755 20.4136 22.7157 21.6443 21.5375C22.9224 20.3122 23.5851 18.5684 23.5851 16.5419V6.83356C23.5851 4.85418 22.9224 3.15758 21.6917 1.93225ZM21.5023 16.5419C21.5023 18.0029 20.9816 19.1811 20.1296 19.9823C19.2775 20.7834 18.0941 21.2076 16.674 21.2076H7.01734C5.59724 21.2076 4.41383 20.7834 3.56177 19.9823C2.70971 19.134 2.28368 17.9558 2.28368 16.4948V6.83356C2.28368 5.41972 2.70971 4.24152 3.56177 3.39322C4.36649 2.59204 5.59724 2.16789 7.01734 2.16789H16.7687C18.1888 2.16789 19.3722 2.59204 20.2242 3.44034C21.0289 4.28865 21.5023 5.46685 21.5023 6.83356V16.5419Z" fill="white"/>
  </symbol>
  <symbol id="telegram" viewBox="0 0 21 18">
    <path fill-rule="evenodd" clip-rule="evenodd" d="M10.7749 13.7789C10.0013 14.5292 9.23433 15.2669 8.47454 16.0105C8.20892 16.2709 7.91027 16.4149 7.52904 16.3949C7.26878 16.3812 7.12325 16.2674 7.04334 16.0216C6.46122 14.2229 5.87062 12.4287 5.29163 10.6283C5.23538 10.4536 5.15235 10.3687 4.97467 10.314C3.6033 9.89716 2.2346 9.47049 0.868139 9.03804C0.65788 8.97138 0.445835 8.88427 0.264146 8.76116C-0.0166465 8.57182 -0.057717 8.26293 0.194059 8.04071C0.426639 7.83582 0.704307 7.65716 0.992689 7.54338C2.66896 6.88204 4.35416 6.24204 6.03669 5.59627C10.3066 3.95493 14.5765 2.31493 18.8469 0.6736C19.6589 0.361156 20.283 0.801156 20.1986 1.67538C20.1446 2.23449 19.9991 2.78471 19.8817 3.33671C18.9545 7.69538 18.0264 12.0545 17.0943 16.4123C16.8729 17.4469 16.143 17.7172 15.2877 17.0892C13.8551 16.038 12.4239 14.9834 10.9923 13.9305C10.924 13.8812 10.853 13.8336 10.7749 13.7789ZM7.55939 15.1025C7.57546 15.098 7.59154 15.0936 7.60761 15.0896C7.61654 15.0487 7.62948 15.0087 7.63305 14.9683C7.72501 13.9803 7.82233 12.9927 7.90224 12.0029C7.92009 11.7825 7.99598 11.626 8.1625 11.4776C9.48298 10.302 10.7954 9.11893 12.1106 7.93849C13.5663 6.63138 15.0225 5.3256 16.4729 4.01316C16.5626 3.93227 16.6001 3.79449 16.6617 3.68249C16.5251 3.66782 16.3787 3.61316 16.2546 3.64516C16.0854 3.68871 15.9251 3.78649 15.7742 3.88116C12.5614 5.89582 9.35129 7.91404 6.13624 9.92471C5.95455 10.0385 5.92062 10.1349 5.98981 10.3336C6.22686 11.0114 6.44247 11.6954 6.66613 12.378C6.96388 13.2865 7.26164 14.1945 7.55939 15.1025Z" fill="white"/>
  </symbol>
  <symbol id="facebook" viewBox="0 0 12 22">
    <path d="M7.23553 22V12.2222H10.3923L11.1815 8.14815H7.23553V6.51852C7.23553 4.88889 8.0263 4.07407 9.6031 4.07407H11.1815V0C10.3923 0 9.4137 0 8.02472 0C5.12444 0 3.28958 2.34748 3.28958 5.7037V8.14815H0.132812V12.2222H3.28958V22H7.23553Z" fill="white"/>
  </symbol>
  <symbol id="vk" viewBox="0 0 20 12">
    <path d="M10.7956 0.584005C9.76924 0.588769 9.11476 0.590004 8.19208 0.590004C7.42036 0.590004 6.98696 0.901006 6.97318 1.08652C6.96059 1.25613 7.35444 1.39328 7.59393 1.53053C7.82511 1.67321 8.03388 2.12613 8.03388 2.43205V5.10062C8.03388 5.35422 7.976 5.53085 7.77022 5.69613C7.67218 5.77487 7.55566 5.79583 7.42971 5.79514C7.32778 5.79459 7.18915 5.77562 7.09372 5.65263C6.07722 4.34264 6.07387 4.18087 4.64989 1.54103C4.58082 1.41299 4.51259 1.27715 4.37115 1.17502C4.22971 1.07289 4.02012 1.00551 3.68411 1.00551C2.53954 1.00551 1.83317 1.02202 1.08057 1.02202C0.368207 1.02202 0.436728 1.45695 0.532144 1.65503C1.3862 3.428 2.25335 5.12087 3.25019 6.83916C4.41757 8.85143 5.48478 10.0601 7.28055 10.9283C7.69736 11.1298 8.44893 11.3378 9.31757 11.3378H11.1632C11.4004 11.3378 11.7945 11.1515 11.7945 10.9013V9.52273C11.7945 9.12849 12.1894 8.98515 12.4047 8.88822C12.6585 8.77402 12.9246 8.95405 13.0586 9.09672C14.0905 10.1949 13.9732 10.0754 14.9134 11.0588C15.1258 11.281 15.2862 11.3978 15.6878 11.3978C18.3994 11.3978 18.4016 11.4029 19.0492 11.3978C19.227 11.3964 19.4911 11.1308 19.5494 11.0273C19.6264 10.8906 19.8015 10.4028 19.5208 10.0867C18.5679 9.01392 17.5965 8.03163 16.6656 7.05667C16.5947 6.98233 16.541 6.88171 16.5391 6.77916C16.5369 6.66702 16.5998 6.55816 16.6656 6.46715C17.7097 5.02436 18.5722 3.80264 19.5102 2.28505C19.8152 1.79174 19.7757 1.44236 19.7197 1.32202C19.6547 1.18267 19.4549 0.990236 19.2255 0.989012C17.9728 0.982015 17.4309 0.964554 16.0946 0.966512C15.6955 0.967112 15.342 0.936593 15.1228 1.41503C14.5355 2.69707 13.5773 4.65338 12.7453 5.46663C12.5916 5.61673 12.3865 5.72826 12.2074 5.72914C12.0283 5.73001 11.8379 5.60856 11.8111 5.31812C11.7906 3.92281 11.8077 2.73241 11.8006 1.36552C11.7984 0.947715 11.6214 0.840212 11.4872 0.747507C11.3051 0.621753 11.0173 0.582954 10.7956 0.584005Z" fill="white"/>
  </symbol>
  <symbol id="phone" viewBox="0 0 14 14">
    <path d="M2.83704 9.30626C4.22312 10.9569 5.89167 12.2565 7.79609 13.1761C8.52116 13.5184 9.49084 13.9246 10.5712 13.9942C10.6382 13.9971 10.7022 14 10.7692 14C11.4943 14 12.0767 13.7505 12.5513 13.237C12.5542 13.2341 12.56 13.2283 12.5629 13.2225C12.7318 13.0195 12.924 12.8367 13.125 12.6424C13.2618 12.5118 13.4016 12.3755 13.5355 12.2362C14.1558 11.5922 14.1558 10.7741 13.5297 10.1504L11.7796 8.40696C11.4826 8.09946 11.1274 7.93701 10.7546 7.93701C10.3819 7.93701 10.0237 8.09946 9.71797 8.40406L8.6755 9.4426C8.5794 9.38748 8.4804 9.33817 8.38721 9.29175C8.27073 9.23373 8.16299 9.17862 8.0669 9.1177C7.1176 8.5172 6.25567 7.73394 5.43158 6.72731C5.01518 6.20224 4.73563 5.76129 4.54053 5.31165C4.81425 5.06506 5.0705 4.80688 5.31802 4.5545C5.40538 4.46457 5.49565 4.37464 5.58592 4.28471C5.90041 3.9714 6.0693 3.60879 6.0693 3.24036C6.0693 2.87194 5.90332 2.50932 5.58592 2.19602L4.71816 1.33154C4.61624 1.23 4.52014 1.13137 4.42114 1.02984C4.22895 0.832574 4.02802 0.629507 3.83001 0.446747C3.53008 0.15375 3.17774 0 2.80501 0C2.43519 0 2.07993 0.153751 1.76835 0.449648L0.679282 1.5346C0.283257 1.92913 0.0590366 2.40779 0.0124454 2.96187C-0.0428816 3.6552 0.0852442 4.39204 0.417206 5.28264C0.926798 6.66059 1.69555 7.93991 2.83704 9.30626ZM0.722961 3.02279C0.757905 2.63697 0.906414 2.31496 1.18596 2.03647L2.26921 0.957315C2.4381 0.794861 2.62446 0.710734 2.80501 0.710734C2.98263 0.710734 3.16318 0.794861 3.32916 0.963116C3.52426 1.14298 3.70771 1.33154 3.90572 1.5317C4.00473 1.63324 4.10665 1.73477 4.20857 1.8392L5.07633 2.70369C5.25687 2.88355 5.35005 3.06631 5.35005 3.24617C5.35005 3.42603 5.25687 3.60879 5.07633 3.78865C4.98606 3.87857 4.89579 3.97141 4.80551 4.06133C4.5347 4.33402 4.28136 4.59221 4.00182 4.83879C3.99599 4.84459 3.99308 4.84749 3.98726 4.85329C3.74557 5.09407 3.78342 5.32325 3.84166 5.49731C3.84457 5.50601 3.84748 5.51181 3.8504 5.52051C4.07462 6.05719 4.38619 6.56776 4.87249 7.17696C5.74607 8.25031 6.66625 9.08288 7.67961 9.724C7.80482 9.80522 7.93877 9.86904 8.06399 9.93286C8.18046 9.99088 8.28821 10.046 8.3843 10.1069C8.39595 10.1127 8.40469 10.1185 8.41633 10.1243C8.51243 10.1736 8.60561 10.1969 8.69879 10.1969C8.93175 10.1969 9.08317 10.0489 9.13267 9.99959L10.2217 8.91463C10.3906 8.74637 10.5741 8.65644 10.7546 8.65644C10.9759 8.65644 11.1565 8.79279 11.27 8.91463L13.0259 10.661C13.3754 11.0091 13.3725 11.3862 13.0172 11.7547C12.8949 11.8852 12.7668 12.0099 12.6299 12.1405C12.4261 12.3378 12.2135 12.5408 12.0213 12.77C11.6865 13.1297 11.2875 13.298 10.7721 13.298C10.7226 13.298 10.6702 13.2951 10.6207 13.2922C9.66556 13.2312 8.77741 12.8599 8.11058 12.5437C6.29934 11.6705 4.70942 10.4318 3.39031 8.85951C2.30415 7.55698 1.57325 6.34438 1.08987 5.04476C0.789936 4.247 0.67637 3.60588 0.722961 3.02279Z" fill="#5A5A5A"/>
  </symbol>
  <symbol id="circle" viewBox="0 0 35 35">
    <path d="M27.0524 22.3764C27.7204 21.0405 28.2214 19.5376 28.2214 18.0347H34.7339C34.5669 20.8735 33.899 23.3784 32.7301 25.7162L27.0524 22.3764Z" fill="#6146EE"/>
    <path d="M2.00388 9.18439L7.68152 12.5242C7.01357 13.8601 6.51259 15.363 6.51259 16.8659H0C0.166988 14.194 0.834962 11.5222 2.00388 9.18439Z" fill="black"/>
    <path d="M16.8657 0V6.67953C15.3628 6.67953 13.8599 7.18052 12.524 7.84847L9.1842 2.00388C11.522 0.834962 14.0269 0.166988 16.8657 0Z" fill="black"/>
    <path d="M18.0342 34.9006V28.2211C19.5371 28.2211 21.04 27.7201 22.3759 27.0522L25.7157 32.8968C23.3779 34.0657 20.706 34.7336 18.0342 34.9006Z" fill="black"/>
    <path d="M12.524 27.0522C13.8599 27.7201 15.3628 28.0541 16.8657 28.2211V34.9006C14.0269 34.7336 11.522 34.0657 9.1842 32.8968L12.524 27.0522Z" fill="black"/>
    <path d="M23.2113 26.5512C24.5472 25.7162 25.5491 24.7143 26.384 23.3784L32.0617 26.7182C30.7258 29.056 28.7219 30.8929 26.384 32.3958L23.2113 26.5512Z" fill="black"/>
    <path d="M8.34929 23.3784C9.18423 24.7143 10.3532 25.7162 11.5221 26.5512L8.18234 32.2288C5.84451 30.8929 4.00759 28.889 2.5047 26.5512L8.34929 23.3784Z" fill="black"/>
    <path d="M11.5222 8.34941C10.1863 9.18436 9.1843 10.1863 8.34936 11.5222L2.67181 8.18242C4.00772 5.84458 6.01152 4.00772 8.34936 2.50482L11.5222 8.34941Z" fill="black"/>
    <path d="M0 18.0347H6.51259C6.51259 19.5376 7.01357 21.0405 7.68152 22.3764L2.00388 25.7162C0.834962 23.3784 0.166988 20.7065 0 18.0347Z" fill="black"/>
    <path d="M34.9005 16.8659H28.3879C28.3879 15.363 27.8869 13.8601 27.219 12.5242L32.8966 9.18439C34.0656 11.5222 34.7335 14.194 34.9005 16.8659Z" fill="#6146EE"/>
    <path d="M26.5512 11.5222C25.7163 10.1863 24.5473 9.18435 23.3784 8.34941L26.7182 2.67181C29.056 4.00772 30.8929 6.01157 32.3958 8.34941L26.5512 11.5222Z" fill="#6146EE"/>
    <path d="M22.3759 7.84847C21.04 7.18052 19.537 6.84652 18.0341 6.67953V0C20.8729 0.166988 23.3778 0.834962 25.7156 2.00388L22.3759 7.84847Z" fill="#6146EE"/>
  </symbol>
  <symbol id="delivery" viewBox="0 0 33 23">
    <path d="M32.0502 19.0326H28.0476V17.0276H30.0453V11.1811L28.3257 6.01497H21.0302V17.0276H22.0327V19.0326H19.0326V4.01001H29.7672L32.0502 10.8591V19.0326Z" fill="#6146EE"/>
    <path d="M24.5496 22.0399C22.6098 22.0399 21.0297 20.4598 21.0297 18.5199C21.0297 16.5801 22.6098 15 24.5496 15C26.4894 15 28.0695 16.5801 28.0695 18.5199C28.0631 20.4598 26.4894 22.0399 24.5496 22.0399ZM24.5496 16.76C23.5797 16.76 22.7896 17.55 22.7896 18.5199C22.7896 19.4898 23.5797 20.2799 24.5496 20.2799C25.5195 20.2799 26.3096 19.4898 26.3096 18.5199C26.3096 17.55 25.5195 16.76 24.5496 16.76Z" fill="black"/>
    <path d="M6.00737 19.0325H2.00476V12.0225H4.00241V17.0276H6.00737V19.0325Z" fill="#6146EE"/>
    <path d="M21.03 19.0325H12.015V17.0276H19.0324V2.00496H-0.00012207V0H21.03V19.0325Z" fill="#6146EE"/>
    <path d="M9.48986 21.98C7.56655 21.98 5.99988 20.4133 5.99988 18.49C5.99988 16.5667 7.56655 15 9.48986 15C11.4132 15 12.9799 16.5667 12.9799 18.49C12.9735 20.4133 11.4132 21.98 9.48986 21.98ZM9.48986 16.745C8.52821 16.745 7.74487 17.5283 7.74487 18.49C7.74487 19.4516 8.52821 20.235 9.48986 20.235C10.4515 20.235 11.2349 19.4516 11.2349 18.49C11.2349 17.5283 10.4515 16.745 9.48986 16.745Z" fill="black"/>
    <path d="M10.0168 4.01001H1.00183V6.01497H10.0168V4.01001Z" fill="#6146EE"/>
    <path d="M8.01233 8.01257H2.00476V10.0175H8.01233V8.01257Z" fill="#6146EE"/>
  </symbol>
  <symbol id="sneaker" viewBox="0 0 30 33">
    <path fill-rule="evenodd" clip-rule="evenodd" d="M17.4913 26.7043C20.5106 25.0918 23.4638 23.3121 26.553 21.4003C23.7979 22.6748 21.0779 23.8794 18.3229 24.9985L17.4913 26.7043Z" fill="black"/>
    <path fill-rule="evenodd" clip-rule="evenodd" d="M27.1597 9.86731C27.3657 10.2131 27.661 10.5007 27.7815 10.9048C28.8112 14.3787 24.5524 16.3799 22.8504 17.6777C21.8246 18.4626 21.1174 19.539 20.6277 20.899C19.4776 24.1048 19.3921 26.4246 16.8935 28.7094C13.7732 31.5655 9.39398 32.84 5.51987 32.6418C4.55231 32.5913 -0.137818 32.3271 0.141957 30.1821C1.33489 30.9554 2.94748 31.3712 4.49791 31.3828C6.08719 31.3945 7.6959 31.3012 9.25409 30.8893C11.7449 30.2326 14.3328 28.7638 16.3184 26.7937C17.694 25.4259 18.4673 23.6346 19.2949 21.7694C20.3441 19.403 21.0474 17.565 22.7144 15.7076C24.226 14.029 26.9344 12.634 27.1597 9.86731Z" fill="#6146EE"/>
    <path fill-rule="evenodd" clip-rule="evenodd" d="M11.3331 19.3408C9.32801 18.245 7.2025 18.3188 6.13779 18.96C5.96294 17.6155 6.81781 17.1842 7.52502 17.157C9.12984 17.1026 11.0144 17.3785 12.5882 18.2178C12.3473 18.688 11.8887 19.2009 11.3331 19.3408Z" fill="#6146EE"/>
    <path fill-rule="evenodd" clip-rule="evenodd" d="M13.0342 17.1493C10.8776 16.1584 8.06821 15.9408 7.05014 16.5547C6.68876 15.2103 7.73015 14.779 8.43736 14.7518C10.0189 14.6974 11.8685 14.9655 13.4306 15.7737C13.3062 16.2672 13.178 16.7257 13.0342 17.1493Z" fill="#6146EE"/>
    <path fill-rule="evenodd" clip-rule="evenodd" d="M13.6528 14.7983C11.5039 13.8346 8.74503 13.6287 7.73862 14.2349C7.37724 12.8904 8.41863 12.4591 9.12584 12.4319C10.6491 12.3775 12.4249 12.6262 13.952 13.3722C13.8471 13.8696 13.7499 14.3437 13.6528 14.7983Z" fill="#6146EE"/>
    <path fill-rule="evenodd" clip-rule="evenodd" d="M14.1421 12.4357C12.0166 11.5226 9.34316 11.3361 8.35617 11.9306C7.99479 10.5861 9.03618 10.1548 9.74339 10.1276C11.2316 10.0771 12.9569 10.3102 14.4568 11.0135C14.3441 11.5032 14.2392 11.9772 14.1421 12.4357Z" fill="#6146EE"/>
    <path fill-rule="evenodd" clip-rule="evenodd" d="M14.7214 9.92949C12.6114 9.05908 10.0157 8.8881 9.04819 9.47097C8.68681 8.12649 9.7282 7.69517 10.4354 7.66797C11.9081 7.61746 13.614 7.84672 15.1022 8.53061C14.9623 9.00856 14.838 9.47486 14.7214 9.92949Z" fill="#6146EE"/>
    <path fill-rule="evenodd" clip-rule="evenodd" d="M18.6382 5.86103C19.9283 5.93874 21.5292 6.20298 22.6289 5.24708C23.7402 4.2834 23.2584 2.67858 22.6289 1.50508C21.5137 -0.577696 19.2289 -0.484438 18.1175 1.69548C17.5619 2.79127 17.4181 3.12933 16.6953 4.12797C17.1267 4.37278 17.5696 4.51266 18.0398 4.58649C18.747 3.00887 19.971 0.374318 21.3039 3.35471C22.2015 5.35588 19.6718 5.35976 18.5411 5.19656C16.672 4.92456 15.7356 4.57872 14.6864 2.74852C13.9403 1.44291 12.0829 1.61776 11.3135 2.06463C9.99627 2.83013 10.5092 4.36112 9.71649 7.1783C10.6879 6.59544 13.2836 6.76641 15.3897 7.63683C15.9454 5.95429 17.3287 5.78331 18.6382 5.86103Z" fill="#6146EE"/>
    <path fill-rule="evenodd" clip-rule="evenodd" d="M23.7826 4.56702C24.4626 5.82212 25.0533 6.64591 25.7993 7.74169C27.6956 10.5122 22.3838 13.2595 20.9732 15.2451C18.3698 18.9016 18.2182 23.2032 15.164 26.0359C12.1836 28.7948 9.02836 29.9372 5.83425 30.0072C5.78762 26.6188 10.3884 24.1669 11.4259 20.0596C14.2081 19.0299 13.9011 14.705 15.9062 8.19633C16.5007 6.26899 18.1832 6.57208 19.5199 6.63813C21.2064 6.71974 22.9744 6.80522 23.7826 4.56702ZM21.9563 12.2686C18.5718 14.4252 18.0084 18.8511 15.9761 22.3405L14.5967 20.6114C16.8815 16.6906 17.1496 12.8204 20.7984 10.3374L21.9563 12.2686ZM5.10373 30.0033C3.37456 29.9761 1.82025 29.6458 0.0988517 29.094C-0.806533 24.8663 4.76178 24.1202 6.13345 19.8731C7.61782 19.1853 9.18767 19.4456 10.5594 20.1023C9.37419 24.163 5.07652 25.6162 5.10373 30.0033Z" fill="#6146EE"/>
    <path fill-rule="evenodd" clip-rule="evenodd" d="M13.6018 30.9593C19.481 28.0955 24.5208 24.6449 29.9998 20.7086C25.7526 23.0556 21.5793 25.2239 17.2 27.1551L14.888 29.4516L13.6018 30.9593Z" fill="black"/>
  </symbol>
  <symbol id="arrow-right" viewBox="0 0 9 13">
    <path d="M1 1L8 6.5L1 12" stroke="white"/>
  </symbol>
</svg>