<svg width="20" height="10" viewBox="0 0 20 10" fill="none" xmlns="http://www.w3.org/2000/svg">
<path d="M18.1141 0.79304C17.4494 0.262955 16.602 0 15.5758 0C14.8994 0 14.3163 0.125217 13.8343 0.37565C13.3485 0.626084 12.9831 0.968343 12.7304 1.39825C12.4777 1.82816 12.3611 2.30816 12.3611 2.83825C12.3611 2.91338 12.3572 2.98433 12.3611 3.05529V3.05946C12.3689 3.79824 12.3417 6.97457 12.3417 7.04553C12.3417 7.26257 12.2873 7.42118 12.1784 7.5297C12.0696 7.63822 11.918 7.69248 11.7275 7.69248C11.5021 7.69248 11.3194 7.62153 11.1833 7.47544C11.0862 7.37109 11.0123 7.23335 10.9695 7.0497C10.9385 6.92031 10.9268 6.78675 10.9268 6.65318V5.61806H8.27966V6.82014C8.33797 7.75509 8.67227 8.47717 9.27477 8.99474C9.88116 9.5123 10.6936 9.76691 11.712 9.76691C12.3378 9.76691 12.8976 9.65839 13.3912 9.43717C13.8849 9.21595 14.2736 8.89456 14.5573 8.46883C14.8411 8.04309 14.981 7.53387 14.981 6.94118C14.981 6.89944 14.981 6.86188 14.981 6.82014V6.80762C14.9616 6.04797 14.981 2.84659 14.981 2.74642C14.981 2.52938 15.0471 2.3666 15.1676 2.24973C15.2881 2.13286 15.4592 2.07442 15.6768 2.07442C15.9178 2.07442 16.1239 2.15373 16.291 2.31651C16.4582 2.47929 16.5553 2.72555 16.5786 3.05529L16.6253 5.61806H19.1986V3.05529C19.1403 2.0786 18.7788 1.32312 18.1141 0.79304Z" fill="#6146EE"/>
<path d="M1.0845 8.97387C1.7492 9.50395 2.5966 9.76691 3.62279 9.76691C4.29915 9.76691 4.88222 9.64169 5.36422 9.39126C5.85011 9.14082 6.2155 8.79856 6.46816 8.36865C6.72083 7.93874 6.83744 7.45875 6.83744 6.92866C6.83744 6.85353 6.84133 6.78257 6.83744 6.71162V6.70744C6.82966 5.96866 6.85687 2.79233 6.85687 2.72138C6.85687 2.50433 6.9113 2.34573 7.02014 2.23721C7.12898 2.12868 7.28057 2.07442 7.47104 2.07442C7.69649 2.07442 7.87919 2.14538 8.01524 2.29147C8.11242 2.39581 8.18627 2.53355 8.22903 2.7172C8.26013 2.84659 8.27179 2.98016 8.27179 3.11372V4.15302H10.9189V2.94677C10.8606 2.01181 10.5263 1.28973 9.92381 0.77217C9.31742 0.254607 8.50501 0 7.48659 0C6.86076 0 6.30102 0.10852 5.80735 0.329736C5.31369 0.550952 4.92498 0.872342 4.64122 1.29808C4.35746 1.72382 4.21752 2.23303 4.21752 2.82572C4.21752 2.86746 4.21752 2.90503 4.21752 2.94677V2.95929C4.23696 3.71894 4.21752 6.92031 4.21752 7.02048C4.21752 7.23753 4.15144 7.40031 4.03094 7.51718C3.91044 7.63405 3.73941 7.69248 3.52173 7.69248C3.28073 7.69248 3.07471 7.61318 2.90756 7.4504C2.74042 7.28762 2.64324 7.04136 2.61992 6.71162L2.57327 4.14885H0V6.71162C0.0583068 7.68831 0.419807 8.44378 1.0845 8.97387Z" fill="#6146EE"/>
<path d="M18.3746 7.09143H17.4689V9.77107H18.3746V7.09143Z" fill="#6146EE"/>
<path d="M1.72978 0H0.824097V2.68382H1.72978V0Z" fill="#6146EE"/>
</svg>
