<svg width="12" height="16" viewBox="0 0 12 16" fill="none" xmlns="http://www.w3.org/2000/svg">
<path d="M10.2622 6.97656H8.71011C7.91052 7.78206 6.80311 8.28184 5.5812 8.28184C4.35926 8.28184 3.25185 7.78206 2.45232 6.97656H0.900193C0.403116 6.97656 0 7.37968 0 7.87676V14.8983C0 15.3953 0.403116 15.7985 0.900193 15.7985H10.2622C10.7593 15.7985 11.1624 15.3953 11.1624 14.8983V7.87676C11.1624 7.37968 10.7593 6.97656 10.2622 6.97656Z" fill="#6146EE"/>
<path d="M3.27772 6.9765C3.92189 7.45504 4.71712 7.74166 5.58113 7.74166C6.44514 7.74166 7.2404 7.45504 7.88454 6.9765C8.83389 6.27108 9.45196 5.14461 9.45196 3.87083C9.45199 1.73305 7.71891 0 5.58116 0C3.44338 0 1.71033 1.73305 1.71033 3.87083C1.71033 5.14461 2.3284 6.27111 3.27772 6.9765Z" fill="#6146EE"/>
</svg>
