<svg width="124" height="17" viewBox="0 0 124 17" fill="none" xmlns="http://www.w3.org/2000/svg">
<path d="M8.39606 8.81133C9.07007 8.63874 9.61044 8.27506 10.023 7.71412C10.4355 7.15319 10.6389 6.45665 10.6389 5.62449C10.6389 4.44715 10.2612 3.55335 9.51166 2.93078C8.75631 2.3082 7.71624 2 6.37984 2H0V16.0233H6.53092C7.94866 16.0233 9.04102 15.6905 9.79638 15.0248C10.5575 14.359 10.9352 13.4159 10.9352 12.2016C10.9352 11.3818 10.7086 10.6667 10.2554 10.0442C9.80218 9.41541 9.18047 9.00858 8.39606 8.81133ZM3.678 5.10671H5.50247C6.43795 5.10671 6.90278 5.53203 6.90278 6.37651C6.90278 7.19634 6.44376 7.60317 5.5199 7.60317H3.67219V5.10671H3.678ZM5.74651 12.892H3.67219V10.3154H5.74651C6.70523 10.3154 7.18168 10.753 7.18168 11.6222C7.1875 12.4666 6.70523 12.892 5.74651 12.892Z" fill="white"/>
<path d="M22.3237 2.91845C21.2953 2.30204 20.1622 2 18.9188 2C17.687 2 16.554 2.30821 15.5197 2.91845C14.4854 3.53486 13.672 4.38551 13.0735 5.48272C12.475 6.57993 12.1787 7.81275 12.1787 9.18735C12.1787 10.5619 12.475 11.7948 13.0735 12.892C13.672 13.9892 14.4854 14.8398 15.5197 15.4562C16.554 16.0727 17.687 16.3747 18.9188 16.3747C20.1506 16.3747 21.2778 16.0665 22.3063 15.4562C23.3347 14.8398 24.1424 13.9892 24.7408 12.892C25.3393 11.7948 25.6356 10.5619 25.6356 9.18735C25.6356 7.81275 25.3393 6.57993 24.7466 5.48272C24.1598 4.38551 23.3463 3.53486 22.3237 2.91845ZM21.0977 11.7824C20.5631 12.4297 19.8368 12.7502 18.913 12.7502C17.9775 12.7502 17.2454 12.4297 16.7108 11.7824C16.1763 11.1352 15.909 10.2722 15.909 9.18735C15.909 8.07781 16.1763 7.2025 16.7108 6.56144C17.2454 5.92037 17.9775 5.59984 18.913 5.59984C19.8485 5.59984 20.5748 5.92037 21.1093 6.56144C21.6381 7.2025 21.9053 8.07781 21.9053 9.18735C21.9053 10.2722 21.6323 11.1352 21.0977 11.7824Z" fill="white"/>
<path d="M64.7339 5.606C65.3208 5.606 65.8379 5.7601 66.2853 6.07447C66.7327 6.38268 67.0639 6.81416 67.2731 7.36893H71.137C70.9395 6.30254 70.556 5.35943 69.9982 4.54577C69.4404 3.73211 68.7141 3.10954 67.8251 2.66572C66.9361 2.22191 65.9251 2 64.792 2C63.4847 2 62.3459 2.30204 61.3639 2.89996C60.3877 3.49788 59.6324 4.34236 59.1036 5.42724C58.5749 6.51212 58.3076 7.74494 58.3076 9.13187C58.3076 10.5188 58.5691 11.7516 59.1036 12.8365C59.6324 13.9214 60.3877 14.7597 61.3639 15.3638C62.34 15.9617 63.4847 16.2637 64.792 16.2637C66.4945 16.2637 67.9064 15.7768 69.022 14.809C70.1376 13.8412 70.8407 12.5344 71.1428 10.8948H67.2789C67.0697 11.4496 66.7385 11.8872 66.2911 12.2016C65.8437 12.516 65.3266 12.6762 64.7397 12.6762C63.9321 12.6762 63.2755 12.3557 62.7816 11.7085C62.2819 11.0612 62.0321 10.2044 62.0321 9.13187C62.0321 8.05931 62.2819 7.20866 62.7816 6.5676C63.2697 5.92653 63.9263 5.606 64.7339 5.606Z" fill="white"/>
<path d="M77.0813 2H73.4033V16.0172H83.3043L83.2694 12.9105H77.0465L77.0813 2Z" fill="white"/>
<path d="M85.2681 16.0172H93.7803V12.9105H88.946V10.377H93.2225V7.42441H88.946V5.10671H93.7803V2H85.2681V16.0172Z" fill="white"/>
<path d="M100.712 2L95.8779 15.9617H99.7419L100.468 13.6255H105.151L105.878 15.9617H109.759L104.942 2H100.712ZM101.386 10.6975L102.821 6.14227L104.239 10.6975H101.386Z" fill="white"/>
<path d="M120.322 2V9.92088L115.47 2H111.792V16.0049H115.47V8.18261L120.322 16.0049H124V2H120.322Z" fill="white"/>
<path d="M54.6124 2.17118C53.6188 1.38834 52.3522 1 50.8182 1C49.8072 1 48.9356 1.18492 48.2151 1.55477C47.4888 1.92462 46.9427 2.43007 46.565 3.06497C46.1873 3.69988 46.013 4.40875 46.013 5.19159C46.013 5.30254 46.0072 5.40733 46.013 5.51212V5.51829C46.0246 6.60933 45.9839 11.3002 45.9839 11.405C45.9839 11.7255 45.9026 11.9598 45.7399 12.12C45.5772 12.2803 45.3506 12.3604 45.0659 12.3604C44.7289 12.3604 44.4558 12.2557 44.2524 12.0399C44.1072 11.8858 43.9968 11.6824 43.9329 11.4112C43.8864 11.2201 43.869 11.0228 43.869 10.8256V9.29688H39.912V11.0721C39.9992 12.4529 40.4989 13.5193 41.3995 14.2836C42.3059 15.048 43.5203 15.424 45.0427 15.424C45.9781 15.424 46.8148 15.2637 47.5528 14.937C48.2907 14.6103 48.8717 14.1357 49.2959 13.507C49.72 12.8782 49.9292 12.1262 49.9292 11.2509C49.9292 11.1893 49.9292 11.1338 49.9292 11.0721V11.0537C49.9002 9.93179 49.9292 5.20392 49.9292 5.05598C49.9292 4.73545 50.028 4.49504 50.2081 4.32245C50.3882 4.14985 50.6439 4.06356 50.9693 4.06356C51.3295 4.06356 51.6375 4.18068 51.8873 4.42108C52.1372 4.66148 52.2824 5.02516 52.3173 5.51212L52.387 9.29688H56.2335V5.51212C56.1464 4.06972 55.606 2.95402 54.6124 2.17118Z" fill="white"/>
<path d="M29.1567 14.2528C30.1503 15.0357 31.417 15.424 32.9509 15.424C33.9619 15.424 34.8335 15.2391 35.554 14.8692C36.2803 14.4994 36.8265 13.9939 37.2041 13.359C37.5818 12.7241 37.7561 12.0153 37.7561 11.2324C37.7561 11.1215 37.7619 11.0167 37.7561 10.9119V10.9057C37.7445 9.81467 37.7852 5.12378 37.7852 5.01899C37.7852 4.69846 37.8665 4.46423 38.0292 4.30396C38.1919 4.14369 38.4185 4.06356 38.7032 4.06356C39.0402 4.06356 39.3133 4.16835 39.5167 4.38409C39.662 4.53819 39.7723 4.74161 39.8363 5.01283C39.8827 5.20392 39.9002 5.40117 39.9002 5.59842V7.13328H43.8571V5.35186C43.7699 3.9711 43.2702 2.90471 42.3696 2.14036C41.4632 1.37601 40.2488 1 38.7265 1C37.791 1 36.9543 1.16026 36.2164 1.48696C35.4784 1.81366 34.8974 2.2883 34.4732 2.91703C34.0491 3.54577 33.8399 4.29779 33.8399 5.1731C33.8399 5.23474 33.8399 5.29022 33.8399 5.35186V5.37035C33.869 6.49221 33.8399 11.2201 33.8399 11.368C33.8399 11.6886 33.7411 11.929 33.561 12.1016C33.3809 12.2741 33.1252 12.3604 32.7998 12.3604C32.4396 12.3604 32.1316 12.2433 31.8818 12.0029C31.6319 11.7625 31.4867 11.3988 31.4518 10.9119L31.3821 7.12712H27.5356V10.9119C27.6227 12.3543 28.1631 13.47 29.1567 14.2528Z" fill="white"/>
<path d="M55.0017 12H53.6479V15.9574H55.0017V12Z" fill="white"/>
<path d="M30.1213 0H28.7675V3.96352H30.1213V0Z" fill="white"/>
</svg>
